<?xml version="1.0" encoding="UTF-8" standalone="no"?>
<!-- Created with Inkscape (http://www.inkscape.org/) -->

<svg
   version="1.1"
   id="svg1"
   width="196.07635"
   height="89.806969"
   viewBox="0 0 196.07635 89.806969"
   xmlns="http://www.w3.org/2000/svg"
   xmlns:svg="http://www.w3.org/2000/svg">
  <defs
     id="defs1" />
  <g
     id="layer9"
     style="display:inline"
     transform="translate(-16.322658,-272.193)">
    <path
       id="path1472"
       style="display:inline;fill:#000000"
       d="m 109.68549,358.35271 c -1.94844,-2.00601 -3.82029,-4.75366 -4.15968,-6.10589 -0.37511,-1.49457 -0.002,-3.39734 0.95161,-4.85271 0.86278,-1.31676 2.40321,-2.39411 3.42319,-2.39411 1.01997,0 2.40087,0.65833 3.06865,1.46296 1.06374,1.28173 1.5042,1.27292 3.55539,-0.0711 1.8114,-1.18687 2.80902,-1.28368 4.40829,-0.42778 1.49889,0.80218 2.06706,2.09097 2.06706,4.68872 0,2.82811 -0.8175,4.39996 -3.88235,7.46482 -2.1353,2.13529 -4.33398,3.88235 -4.88596,3.88235 -0.55198,0 -2.59777,-1.64128 -4.5462,-3.64729 z m 3.98637,-3.65827 c 0.54714,0.10695 0.99481,-0.43576 0.99481,-1.20601 0,-0.77025 -0.44589,-1.12488 -0.99086,-0.78807 -0.59482,0.36762 -0.76469,-0.25249 -0.42499,-1.55148 0.39128,-1.49626 -0.079,-2.61557 -1.52433,-3.6279 -1.53821,-1.07741 -2.43828,-1.17513 -3.40834,-0.37006 C 107.59317,347.7526 107,349.4791 107,350.98759 c 0,1.50848 0.99889,4.01258 2.21976,5.56466 l 2.21976,2.82197 0.61877,-2.43711 c 0.34032,-1.34041 1.06642,-2.34961 1.61357,-2.24267 z M 121.78828,350 c -0.19064,-1.65327 -0.9953,-2.60102 -2.37579,-2.79826 -1.14812,-0.16404 -2.53348,0.28596 -3.07857,1 -0.54508,0.71404 -0.78937,3.54286 -0.54287,6.28626 l 0.4482,4.988 2.91866,-3.488 c 1.87167,-2.23677 2.81524,-4.38481 2.63037,-5.988 z M 75.25,357.26368 C 74.5625,357.02699 74,356.0417 74,355.07414 c 0,-0.98482 1.540657,-2.5889 3.5,-3.64407 1.925,-1.03668 3.5,-2.14215 3.5,-2.45659 0,-0.31443 -1.6875,-1.21566 -3.75,-2.00271 -2.0625,-0.78705 -4.551438,-1.43995 -5.530973,-1.45089 -0.979536,-0.0109 -2.152265,-0.61664 -2.606066,-1.34601 -0.453801,-0.72937 -2.515984,-2.34662 -4.58263,-3.59389 -3.500062,-2.11238 -4.034288,-2.17242 -7.796346,-0.87629 -2.814852,0.9698 -4.356279,1.07402 -5.086397,0.3439 C 50.917471,339.31747 51.393447,339 53.218213,339 c 1.440016,0 3.330016,-0.27314 4.2,-0.60699 C 58.288196,338.05917 59,337.38417 59,336.89301 59,336.40186 56.551558,336 53.559017,336 c -2.992541,0 -5.702005,0.42234 -6.021032,0.93854 -0.319028,0.5162 0.216915,1.40251 1.190983,1.96959 0.974067,0.56708 1.263632,1.04474 0.643477,1.06146 -0.620156,0.0167 -1.606915,-0.54718 -2.192798,-1.25313 -0.652718,-0.78648 -0.7197,-1.84264 -0.172965,-2.72727 0.538635,-0.87153 2.488086,-1.44374 4.918683,-1.44374 h 4.026406 l -3.225886,-3.3696 C 50.951648,329.32256 48.4875,327.41097 47.25,326.92787 c -1.2375,-0.4831 -2.25,-1.58785 -2.25,-2.455 0,-0.86715 -0.995807,-3.30689 -2.212904,-5.42164 -1.788678,-3.1079 -2.912385,-3.93882 -5.861631,-4.3344 -2.0068,-0.26917 -4.835993,-1.26733 -6.287096,-2.21812 C 29.187266,311.54791 28,309.90761 28,308.85361 c 0,-1.05401 0.634384,-2.15982 1.409743,-2.45735 0.775358,-0.29753 2.842177,0.19977 4.59293,1.10512 1.750753,0.90535 2.999195,1.83009 2.774314,2.05497 -0.22488,0.22488 -1.824524,-0.12548 -3.554765,-0.77857 -1.73024,-0.6531 -3.452191,-0.88114 -3.826557,-0.50678 -0.374367,0.37437 -0.117834,1.35884 0.570072,2.18772 0.687907,0.82887 2.864229,1.95255 4.836272,2.49706 1.972044,0.5445 3.787462,0.78808 4.034263,0.54128 0.246801,-0.2468 -0.177896,-1.20377 -0.943771,-2.12659 -0.765876,-0.92282 -1.206469,-1.7212 -0.979098,-1.77416 0.227372,-0.053 -0.371293,-2.45881 -1.330366,-5.34631 -0.959074,-2.8875 -2.133763,-5.25 -2.61042,-5.25 -0.476657,0 -0.791988,-1.87228 -0.700735,-4.16063 0.127618,-3.20026 -0.285604,-4.41209 -1.790204,-5.25 -1.075865,-0.59915 -3.683175,-2.75773 -5.794022,-4.79685 -2.677254,-2.58627 -3.73958,-4.39768 -3.512779,-5.98978 0.178817,-1.25527 1.108566,-2.43162 2.066108,-2.61411 0.988323,-0.18836 3.075599,1.10418 4.828084,2.98978 L 31.156167,282.5 30.828084,277.59772 C 30.647638,274.90146 30.95,272.54628 31.5,272.36397 c 0.55,-0.1823 1.657107,0.0838 2.460237,0.59124 1.259661,0.79595 1.225321,1.18227 -0.25,2.81248 -1.072505,1.18511 -1.708843,3.53844 -1.706499,6.31105 l 0.0037,4.42126 1.855555,-3.0428 c 1.020555,-1.67353 3.02804,-3.81103 4.461078,-4.75 C 39.75711,277.76824 41.797283,277 42.85779,277 c 1.060507,0 2.21058,0.73589 2.555718,1.6353 0.424379,1.10591 -0.683733,2.88267 -3.423003,5.48848 -2.22779,2.11924 -5.196405,4.14077 -6.596922,4.49228 -2.160866,0.54234 -2.447935,1.03614 -1.89607,3.26152 0.357679,1.44233 1.067054,2.77242 1.576387,2.95575 0.509334,0.18334 0.937863,1.98334 0.952286,4 0.01442,2.01667 0.877996,5.46667 1.919052,7.66667 1.48729,3.143 1.910172,3.52132 1.973776,1.76578 0.04452,-1.22883 1.357696,-3.66316 2.918166,-5.40963 1.652032,-1.84894 3.322945,-2.8752 4,-2.45675 0.63953,0.39525 1.162782,1.61442 1.162782,2.70928 0,1.09485 -0.628929,3.20686 -1.397621,4.69334 -0.768691,1.48649 -2.318818,3.53637 -3.444726,4.55531 l -2.047105,1.8526 2.577612,3.89504 C 45.105847,320.24723 46.880974,322 47.632886,322 48.384799,322 49,322.80631 49,323.79179 c 0,0.98549 1.962006,3.71736 4.360012,6.07082 l 4.360013,4.27903 -0.466949,-4.85963 c -0.351858,-3.66186 -0.07088,-5.18833 1.139988,-6.19326 1.2869,-1.06803 1.905674,-1.08571 3.106936,-0.0888 0.853347,0.70822 1.5,2.88845 1.5,5.05735 0,2.09685 -0.429682,4.9426 -0.95485,6.3239 -0.85212,2.24124 -0.568339,2.75032 2.637707,4.73176 1.975905,1.22118 4.318088,2.20376 5.204849,2.18351 0.886762,-0.0202 2.512294,0.77478 3.612294,1.76672 1.1,0.99194 3.2375,2.27237 4.75,2.8454 1.5125,0.57302 2.75,0.88295 2.75,0.68873 0,-0.19422 -0.697468,-2.0224 -1.549928,-4.06262 -1.160926,-2.77849 -1.268066,-4.04913 -0.426887,-5.06269 0.617673,-0.74425 1.784309,-1.09943 2.592525,-0.78928 0.808216,0.31014 2.350315,2.29046 3.426887,4.40072 1.076572,2.1103 1.957403,4.73746 1.957403,5.83817 0,1.49894 1.035984,2.28025 4.127204,3.11263 2.938174,0.79117 4.436271,0.80228 5.2,0.0385 C 96.917242,349.48276 98.187639,349 99.15031,349 c 0.96267,0 2.18451,0.77588 2.71521,1.72418 0.6121,1.09377 0.61741,2.37346 0.0145,3.5 -0.52271,0.9767 -1.87668,1.77582 -3.008823,1.77582 -1.184177,0 -2.270301,-0.81017 -2.557271,-1.90755 -0.274359,-1.04915 -1.46973,-2.168 -2.65638,-2.48634 -1.18665,-0.31834 -3.032923,-0.58495 -4.102827,-0.59246 -1.069905,-0.008 -3.094905,1.05012 -4.5,2.35029 -1.405096,1.30016 -3.904719,2.80632 -5.554719,3.34701 -1.65,0.5407 -3.5625,0.78943 -4.25,0.55273 z m 8.877455,-4.90017 2.372545,-2.52629 -3,0.72173 c -1.65,0.39695 -4.2375,1.34513 -5.75,2.10707 -1.5125,0.76194 -2.75,1.74878 -2.75,2.19299 0,0.44421 0.263255,1.07091 0.585012,1.39267 0.321756,0.32176 1.841611,0.14696 3.377455,-0.38844 1.535844,-0.5354 3.860089,-2.11028 5.164988,-3.49973 z M 85.440702,345.75 c -0.38174,-1.2375 -1.338462,-3.5162 -2.126049,-5.06378 -0.787587,-1.54758 -1.968079,-2.62589 -2.623315,-2.39626 -0.655236,0.22964 -1.035135,1.26275 -0.84422,2.2958 0.190914,1.03305 1.234057,3.12387 2.318094,4.64626 1.084037,1.52239 2.420658,2.76798 2.97027,2.76798 0.575289,0 0.704795,-0.95468 0.30522,-2.25 z M 61.532255,326.27249 c -0.33331,-1.32801 -1.151922,-2.2354 -1.819137,-2.01641 -0.667215,0.21899 -1.347203,1.51489 -1.511084,2.87978 -0.163882,1.36489 0.232297,3.80519 0.880397,5.42288 l 1.178365,2.94126 0.938739,-3.40647 c 0.516306,-1.87356 0.66603,-4.49302 0.33272,-5.82104 z M 44.463949,308.26787 C 45.858777,306.21519 47,303.96519 47,303.26787 47,302.57054 46.336556,302 45.52568,302 c -0.810876,0 -2.160876,1.32765 -3,2.95034 -0.839124,1.62269 -1.52568,3.87269 -1.52568,5 0,1.12731 0.208777,2.04966 0.463949,2.04966 0.255172,0 1.605172,-1.67946 3,-3.73213 z M 30.516549,285.032 c -0.844146,-1.6324 -2.754315,-4.09878 -4.24482,-5.48086 -1.732675,-1.60663 -3.056458,-2.16641 -3.670663,-1.55221 -0.614205,0.61421 -0.518831,1.77938 0.264457,3.23086 0.673811,1.24862 2.660881,3.28271 4.415712,4.52021 1.754831,1.2375 3.545994,2.25 3.980363,2.25 0.434369,0 0.0991,-1.3356 -0.745049,-2.968 z M 40.75,283.32363 C 42.5375,281.98965 44,280.24612 44,279.44911 44,278.6521 43.184191,278 42.187091,278 c -0.9971,0 -2.967116,1.2375 -4.377813,2.75 -1.410698,1.5125 -3.103951,3.79656 -3.762785,5.07569 -1.144104,2.22129 -1.093473,2.27177 1.127813,1.12452 1.279132,-0.66064 3.788194,-2.29261 5.575694,-3.62658 z M 148.5,356.6101 c -1.65,-0.73527 -3.85724,-2.29833 -4.90499,-3.47347 -1.17835,-1.32164 -3.08554,-2.13079 -5,-2.12132 -1.70225,0.008 -3.57783,0.34592 -4.16795,0.75 -0.59012,0.40408 -1.3635,1.52219 -1.71862,2.48469 -0.37577,1.01849 -1.67564,1.75 -3.10967,1.75 -1.62911,0 -2.69107,-0.71545 -3.13416,-2.11151 -0.42933,-1.3527 -0.0884,-2.6933 0.94878,-3.73045 1.33697,-1.33698 1.96564,-1.40243 3.60954,-0.3758 1.52323,0.95128 3.0189,0.98422 6.37044,0.14029 4.04697,-1.01904 4.42674,-1.39609 4.9968,-4.96107 0.33933,-2.12202 1.74137,-5.11895 3.11565,-6.65984 2.39147,-2.68141 2.5602,-2.72209 3.93234,-0.94814 1.07897,1.39492 1.18489,2.50778 0.42814,4.49817 -0.55303,1.45458 -1.66054,3.36849 -2.46113,4.25314 -1.16988,1.2927 -1.20529,1.80836 -0.1804,2.62685 0.70138,0.56012 2.76562,1.77562 4.58722,2.70111 2.46067,1.25019 3.23179,2.24359 3,3.86477 -0.1716,1.20013 -0.98699,2.28721 -1.81199,2.41573 -0.825,0.12853 -2.85,-0.36789 -4.5,-1.10315 z m 5.09376,-0.7618 c 0.39148,-0.63344 -0.12367,-1.76261 -1.14479,-2.50927 -1.02112,-0.74667 -3.42707,-1.7912 -5.34655,-2.3212 -1.91948,-0.52999 -3.66962,-0.78396 -3.88921,-0.56438 -0.21958,0.21959 1.51013,1.78239 3.84381,3.4729 2.33368,1.69051 4.59898,3.07365 5.034,3.07365 0.43502,0 1.11125,-0.51827 1.50274,-1.1517 z M 149,339.98422 C 149,338.8929 148.37959,338 147.62132,338 c -0.75827,0 -1.8531,1.2375 -2.43295,2.75 -0.57985,1.5125 -1.33639,3.875 -1.6812,5.25 -0.59726,2.38172 -0.48216,2.34549 2.43295,-0.76578 1.68294,-1.79617 3.05988,-4.15867 3.05988,-5.25 z m 15.75678,14.72703 c -0.83572,-0.66619 -2.29964,-2.44875 -3.25315,-3.96125 -1.51601,-2.40477 -1.53908,-2.75 -0.18374,-2.75 0.85245,0 2.80755,0.47815 4.34466,1.06256 1.53711,0.58441 3.13451,1.59691 3.54979,2.25 0.41527,0.65309 0.76193,1.50911 0.77035,1.90226 0.008,0.39315 -0.82253,1.16321 -1.84655,1.71125 -1.29824,0.6948 -2.32184,0.62977 -3.38136,-0.21482 z M 168,352.61663 c 0,-0.76085 -0.99285,-1.643 -2.20633,-1.96034 -1.21348,-0.31733 -2.40261,-0.38069 -2.6425,-0.14079 -0.23989,0.23989 0.13305,1.12204 0.82877,1.96033 0.69572,0.8383 1.88485,1.52417 2.6425,1.52417 C 167.3801,354 168,353.37748 168,352.61663 Z m -108.444227,1.47361 c -0.309244,-0.50036 -0.296009,-1.6036 0.02941,-2.45163 0.32542,-0.84803 2.130801,-2.04983 4.011959,-2.67067 1.881158,-0.62084 3.917604,-0.96302 4.525436,-0.76041 0.634229,0.21141 -0.04654,1.73708 -1.597608,3.58042 C 65.038454,353.55458 62.988773,355 61.970123,355 c -1.018649,0 -2.105107,-0.40939 -2.41435,-0.90976 z m 5.039239,-2.25981 c 1.799637,-2.04958 1.803685,-2.13253 0.0732,-1.5 C 63.660729,350.6987 62.423229,351 61.918213,351 61.413196,351 61,351.675 61,352.5 c 0,0.825 0.380256,1.5 0.845012,1.5 0.464757,0 1.702257,-0.9763 2.75,-2.16957 z m 86.059708,-5.73345 c 2.28509,-1.06372 4.58554,-2.70388 5.11211,-3.6448 0.52656,-0.94093 1.58194,-1.48402 2.34528,-1.20687 0.76334,0.27714 3.01441,-0.38827 5.00238,-1.47869 l 3.61449,-1.98258 -0.11449,-7.64202 C 166.5019,322.62667 166.54144,322.5 169,322.5 c 2.37901,0 2.49881,0.27765 2.47543,5.73697 l -0.0246,5.73696 4.22227,-4.14385 c 2.32226,-2.27912 4.19252,-4.41075 4.15615,-4.73696 -0.0364,-0.32622 -0.0128,-1.15562 0.0523,-1.84312 0.0651,-0.6875 0.71056,-1.25 1.43428,-1.25 0.72372,0 2.32439,-1.79444 3.55704,-3.98765 l 2.24119,-3.98766 -3.00424,-3.76234 c -1.65234,-2.06929 -3.21698,-4.96553 -3.477,-6.43608 -0.3158,-1.7861 0.0258,-2.86504 1.02899,-3.25 0.82595,-0.31695 1.93563,-0.57627 2.46595,-0.57627 0.53032,0 1.99144,2.21714 3.24693,4.92699 l 2.2827,4.92698 1.7811,-4.95307 c 0.97961,-2.72419 1.54162,-5.86886 1.24891,-6.98816 -0.32294,-1.23492 0.0271,-2.24969 0.89019,-2.5809 0.78231,-0.3002 1.42238,-1.79308 1.42238,-3.31751 0,-2.13779 -0.68717,-3.05632 -3.0046,-4.01624 -1.65253,-0.6845 -4.35253,-2.77975 -6,-4.65611 -1.64747,-1.87637 -2.9954,-3.79081 -2.9954,-4.25433 0,-0.46352 0.64267,-1.37613 1.42817,-2.02803 1.11226,-0.9231 2.07479,-0.85089 4.3515,0.32644 1.60783,0.83144 3.76995,2.77222 4.8047,4.31283 l 1.88138,2.80111 0.63548,-3.5 c 0.57549,-3.16957 0.64792,-3.23365 0.76713,-0.6788 l 0.13164,2.8212 3.44688,-3.65475 c 2.05708,-2.18114 4.16928,-3.51564 5.23852,-3.30972 0.9854,0.18977 1.9418,1.12477 2.12533,2.07777 0.18353,0.95301 -0.64716,3.11022 -1.84599,4.79382 -1.19882,1.68359 -3.98274,4.1993 -6.18648,5.59046 -3.80928,2.40469 -3.97634,2.71983 -3.38897,6.39302 0.42301,2.64541 0.21036,4.11642 -0.67445,4.66532 -0.71075,0.44092 -2.02615,2.71418 -2.92311,5.05168 -0.89696,2.3375 -1.51118,4.25 -1.36492,4.25 0.14625,0 1.70226,-0.71654 3.45779,-1.59232 1.75553,-0.87577 3.84967,-1.33989 4.65364,-1.03138 0.80397,0.30851 1.46176,1.49705 1.46176,2.64121 0,1.4781 -1.23023,2.6387 -4.25,4.00942 -2.3375,1.06103 -5.15,1.94249 -6.25,1.95881 -1.26406,0.0187 -2.82793,1.47962 -4.25,3.97008 -1.2375,2.16723 -2.25,4.6499 -2.25,5.51705 0,0.86715 -1.0125,1.9719 -2.25,2.455 -1.2375,0.4831 -3.74661,2.44108 -5.57581,4.35107 -3.08343,3.21962 -3.15611,3.44026 -0.99735,3.02759 1.28065,-0.24481 3.56476,0.0249 5.07581,0.59943 1.51104,0.57449 2.74735,1.71484 2.74735,2.53411 0,0.81926 -0.9,1.97123 -2,2.55993 -1.35599,0.7257 -2,0.73703 -2,0.0352 0,-0.56935 0.45,-1.03518 1,-1.03518 0.55,0 1,-0.675 1,-1.5 0,-1.13094 -1.21566,-1.5 -4.94098,-1.5 -2.71754,0 -5.21095,0.43681 -5.5409,0.97068 -0.32995,0.53388 0.65599,1.24646 2.19098,1.58353 1.535,0.33706 3.4659,0.85264 4.2909,1.14574 0.9151,0.3251 1.06335,0.69804 0.3802,0.95641 -0.6159,0.23293 -2.92727,-0.19921 -5.1364,-0.96032 -3.72071,-1.28189 -4.28551,-1.22153 -7.66702,0.8193 -2.00774,1.21171 -4.19636,2.89379 -4.8636,3.73794 -0.66725,0.84415 -2.56318,1.78022 -4.21318,2.08017 -1.65,0.29994 -4.35,0.8046 -6,1.12146 -2.52568,0.48501 -2.34312,0.27032 1.15472,-1.35793 z m 19.67288,-17.61892 c 0.10379,-2.86965 -0.29131,-4.93019 -0.99274,-5.17744 -0.64083,-0.22589 -1.46468,0.53303 -1.83077,1.68651 -0.3661,1.15347 -0.35744,3.92139 0.0192,6.15094 0.44415,2.62893 1.02704,3.71156 1.65837,3.08023 0.53543,-0.53543 1.05109,-3.11854 1.1459,-5.74024 z M 198.75,310.77359 c 0.6875,-0.56016 1.25,-1.41338 1.25,-1.89603 0,-0.48266 -0.7875,-0.87588 -1.75,-0.87382 -0.9625,0.002 -3.2125,0.89544 -5,1.9853 -1.7875,1.08986 -3.25,2.4019 -3.25,2.91565 0,0.56292 1.49011,0.52745 3.75,-0.0893 2.0625,-0.56284 4.3125,-1.48167 5,-2.04183 z m -11.72072,-4.18488 c -0.62237,-1.8858 -1.77824,-3.9654 -2.5686,-4.62134 -1.13582,-0.94265 -1.56043,-0.87099 -2.02585,0.34187 -0.32386,0.84396 -0.0464,2.58214 0.61667,3.86262 0.66302,1.28048 1.92366,3.15017 2.80142,4.15487 0.90317,1.03378 1.75046,1.36312 1.95193,0.75871 0.1958,-0.5874 -0.1532,-2.61094 -0.77557,-4.49673 z m 6.56444,-22.40748 c -0.85457,-1.65255 -2.76485,-3.95728 -4.24506,-5.12161 -1.72228,-1.35475 -3.03748,-1.7708 -3.65276,-1.15552 -0.52881,0.52881 -0.69777,1.64863 -0.37548,2.48851 0.32229,0.83987 2.47889,2.89826 4.79246,4.5742 2.31357,1.67594 4.39281,2.86084 4.62054,2.63311 0.22773,-0.22773 -0.28514,-1.76614 -1.1397,-3.41869 z m 9.60997,-0.0302 c 2.88811,-2.694 3.93116,-4.35728 3.47611,-5.54312 -0.49739,-1.29619 -1.08178,-1.46319 -2.48754,-0.71085 -1.01058,0.54084 -3.04226,2.72194 -4.51484,4.84687 -1.47258,2.12494 -2.67742,4.17683 -2.67742,4.55977 0,0.38294 0.46743,0.69625 1.03872,0.69625 0.5713,0 2.89553,-1.73201 5.16497,-3.84892 z M 97.411205,343.50224 c -0.344794,-1.37377 -0.367491,-3.17377 -0.05044,-4 C 97.677822,338.67601 98.599796,338 99.409598,338 c 0.809802,0 1.767272,0.47716 2.127702,1.06036 0.36044,0.58319 0.1074,2.38319 -0.5623,4 C 100.3053,344.67716 99.370527,346 98.897732,346 98.424936,346 97.756,344.87601 97.411205,343.50224 Z M 100,340.94098 c 0,-1.13246 -0.45,-1.7809 -1,-1.44098 -0.55,0.33992 -1,1.26648 -1,2.05902 0,0.79254 0.45,1.44098 1,1.44098 0.55,0 1,-0.92656 1,-2.05902 z m 27.97696,2.00339 c -0.90423,-2.183 -0.95807,-3.36326 -0.18854,-4.13279 0.59243,-0.59243 1.78239,-0.80652 2.64436,-0.47575 0.86197,0.33077 1.56722,1.37653 1.56722,2.32391 0,1.53076 -0.16345,1.50642 -1.4682,-0.21861 -1.43146,-1.89257 -1.46899,-1.88484 -1.5,0.30887 -0.0175,1.2375 0.4182,2.25 0.9682,2.25 0.55,0 1,0.675 1,1.5 0,0.825 -0.39541,1.5 -0.87868,1.5 -0.48327,0 -1.44824,-1.37504 -2.14436,-3.05563 z M 52.462355,317.25 c 0.373544,-1.5125 1.067079,-3.14725 1.54119,-3.63278 0.474111,-0.48553 1.567268,-0.61216 2.429238,-0.28139 C 57.294752,313.6666 58,314.38382 58,314.92966 c 0,0.54584 -0.984853,1.90996 -2.188561,3.03138 C 54.60773,319.08247 53.208946,320 52.703031,320 c -0.505916,0 -0.61422,-1.2375 -0.240676,-2.75 z M 56,315.5 c 0,-0.825 -0.176855,-1.5 -0.393011,-1.5 -0.216156,0 -0.652033,0.675 -0.968615,1.5 -0.316583,0.825 -0.139728,1.5 0.393011,1.5 C 55.564123,317 56,316.325 56,315.5 Z m 117.25,2.82558 C 172.0125,317.46234 171,315.91094 171,314.87803 171,313.65901 171.7105,313 173.02475,313 c 1.25331,0 2.39633,0.97732 3,2.5651 0.53639,1.4108 0.97525,2.9858 0.97525,3.5 0,0.51419 -0.3375,0.9113 -0.75,0.88245 -0.4125,-0.0288 -1.7625,-0.75874 -3,-1.62197 z M 175,316 c -0.5887,-1.1 -1.57428,-2 -2.19017,-2 -0.61589,0 -0.30532,0.9 0.69017,2 0.99549,1.1 1.98106,2 2.19017,2 0.20911,0 -0.10147,-0.9 -0.69017,-2 z M 20.465282,298.04848 c -1.119095,-0.45362 -2.620335,-1.53038 -3.33609,-2.39281 -0.715754,-0.86243 -1.011074,-2.03777 -0.656265,-2.61187 0.354809,-0.57409 1.381426,-1.0438 2.281371,-1.0438 0.899945,0 2.898388,1.20919 4.440983,2.68709 1.542596,1.4779 2.804719,3.0529 2.804719,3.5 0,0.4471 -0.7875,0.78439 -1.75,0.74952 -0.9625,-0.0349 -2.665623,-0.43452 -3.784718,-0.88813 z M 21.5,295 c -0.995486,-1.1 -2.190231,-2 -2.654988,-2 C 18.380256,293 18,293.6375 18,294.41667 c 0,0.77916 0.5625,1.64364 1.25,1.92105 0.6875,0.27741 1.882244,0.53991 2.654988,0.58333 C 22.961417,296.98041 22.860945,296.50383 21.5,295 Z m 181.5,3.45951 c 0,-0.29727 0.98463,-1.87227 2.18806,-3.5 1.27385,-1.72298 3.10932,-2.95951 4.39301,-2.95951 1.21272,0 2.44775,0.63272 2.7445,1.40604 0.29675,0.77333 -0.33286,2.19557 -1.39914,3.16054 -1.06628,0.96497 -2.22534,1.46784 -2.57569,1.11749 -0.35035,-0.35034 0.10241,-0.92073 1.00613,-1.26752 C 210.26059,296.06976 211,295.15917 211,294.39301 211,293.62686 210.58214,293 210.07143,293 c -0.51072,0 -1.6166,0.68802 -2.45751,1.52894 -0.84092,0.84092 -1.27492,2.19092 -0.96444,3 C 207.03625,298.53684 206.5506,299 205.10699,299 203.94814,299 203,298.75678 203,298.45951 Z m -8.63581,-22.95282 c -0.34636,-0.90262 -0.15025,-2.12063 0.43581,-2.70669 0.58606,-0.58606 1.80407,-0.78217 2.70669,-0.43581 0.90262,0.34637 1.4902,1.41345 1.30573,2.3713 -0.18446,0.95785 -1.11908,1.89247 -2.07693,2.07693 -0.95785,0.18447 -2.02493,-0.40311 -2.3713,-1.30573 z" />
  </g>
</svg>
