<?xml version="1.0" encoding="UTF-8" standalone="no"?>
<!-- Created with Inkscape (http://www.inkscape.org/) -->

<svg
   version="1.1"
   id="svg1"
   width="195"
   height="203.8309"
   viewBox="0 0 195 203.8309"
   xmlns="http://www.w3.org/2000/svg"
   xmlns:svg="http://www.w3.org/2000/svg">
  <defs
     id="defs1" />
  <g
     id="layer4"
     style="display:inline"
     transform="translate(-17,-8.1690966)">
    <path
       id="path1509"
       style="display:inline;fill:#000000"
       d="m 108.45123,208.51696 c -1.80671,-1.91567 -3.78585,-5.00085 -4.39809,-6.85595 -0.77165,-2.33813 -0.80177,-4.19197 -0.0982,-6.04259 0.55825,-1.46832 1.77254,-2.96037 2.69843,-3.31566 0.92588,-0.3553 2.86438,0.0318 4.30777,0.86018 2.23991,1.28553 2.81484,1.30226 3.92467,0.11417 0.71517,-0.76559 2.49261,-1.25364 3.94985,-1.08455 1.73917,0.20181 3.10498,1.26208 3.97509,3.08584 1.03982,2.17948 1.07738,3.53042 0.17424,6.26696 -0.63323,1.91871 -2.62955,5.05593 -4.43626,6.9716 C 116.74206,210.43263 114.47012,212 113.5,212 c -0.97012,0 -3.24206,-1.56737 -5.04877,-3.48304 z m 5.41713,-3.26696 c -0.12601,-4.54678 -0.16021,-4.60026 -0.79939,-1.25 -0.36726,1.925 -0.48488,4.0625 -0.26137,4.75 0.22351,0.6875 0.58323,1.25 0.79939,1.25 0.21615,0 0.33377,-2.1375 0.26137,-4.75 z m -2.9387,-9.83475 c -0.69006,-0.83147 -2.19403,-1.37755 -3.34215,-1.21351 -1.31633,0.18808 -2.21049,1.16705 -2.42039,2.64997 -0.18308,1.29344 -0.0804,3.35783 0.22827,4.58752 0.30864,1.22969 1.58343,3.53694 2.83288,5.12722 l 2.27173,2.89141 0.84216,-6.26542 c 0.61948,-4.60881 0.51041,-6.66515 -0.4125,-7.77719 z m 9.63628,8.45724 C 121.35467,202.34725 122,199.78207 122,198.1721 c 0,-1.60996 -0.64623,-3.46354 -1.43608,-4.11905 -1.03854,-0.86192 -1.98328,-0.89898 -3.41284,-0.1339 -1.08723,0.58186 -2.14411,1.55994 -2.34863,2.1735 -0.20452,0.61355 0.0646,3.75464 0.59806,6.98019 0.79683,4.81811 1.21629,5.66015 2.35064,4.71873 0.7594,-0.63025 2.02605,-2.39383 2.81479,-3.91908 z M 92.666667,200.33333 C 92.3,199.96667 92,198.89677 92,197.95578 c 0,-0.94099 0.617963,-2.22375 1.373252,-2.85059 0.755288,-0.62683 2.070495,-0.87214 2.922681,-0.54512 0.852186,0.32701 1.816987,1.29181 2.144001,2.144 0.327015,0.85218 0.08171,2.16739 -0.545126,2.92268 C 97.267975,200.38204 95.985211,201 95.044222,201 c -0.940989,0 -2.010889,-0.3 -2.377555,-0.66667 z m 3.887184,-1.42046 c 0.369536,-0.59793 0.171094,-1.58793 -0.440983,-2.2 -0.817157,-0.81716 -1.408579,-0.81716 -2.225736,0 -0.612077,0.61207 -0.810519,1.60207 -0.440983,2.2 C 93.815686,199.51079 94.514919,200 95,200 c 0.485081,0 1.184314,-0.48921 1.553851,-1.08713 z m 34.112819,1.42046 C 130.3,199.96667 130,198.8575 130,197.86852 c 0,-0.98899 0.87042,-2.26399 1.93426,-2.83334 1.06384,-0.56935 2.17301,-1.03518 2.46481,-1.03518 0.29181,0 1.02762,0.92877 1.63514,2.06392 0.8199,1.53199 0.79741,2.43404 -0.0873,3.5 -0.65551,0.78985 -1.96174,1.43608 -2.90273,1.43608 -0.94099,0 -2.01089,-0.3 -2.37755,-0.66667 z M 135,197.44098 C 135,196.64844 134.325,196 133.5,196 c -0.825,0 -1.5,0.6 -1.5,1.33333 0,0.73334 0.28777,1.6211 0.63948,1.97282 0.35171,0.35171 1.02671,0.40015 1.5,0.10765 C 134.61277,199.12129 135,198.23352 135,197.44098 Z m -58.049585,-1.00073 c -0.92392,-1.11325 -1.024775,-2.32985 -0.352321,-4.25 0.550677,-1.57242 1.816902,-2.81624 3.047384,-2.99347 1.157877,-0.16677 2.836321,0.42788 3.729876,1.32143 C 84.26891,191.41177 85,192.75357 85,193.5 c 0,0.74643 -0.707143,2.06429 -1.571429,2.92857 C 82.564286,197.29286 81.044386,198 80.051016,198 c -0.99337,0 -2.38864,-0.70189 -3.100601,-1.55975 z M 82.5,193.5137 c 0,-1.13997 -0.790913,-2.13863 -1.85622,-2.34379 -1.020921,-0.19661 -2.273173,0.0595 -2.782782,0.56909 -0.50961,0.50961 -0.629536,1.70061 -0.266503,2.64665 0.400184,1.04287 1.495809,1.60085 2.782783,1.41722 C 81.726801,195.61032 82.5,194.77649 82.5,193.5137 Z m 63.07143,2.91487 c -0.86429,-0.86428 -1.57143,-2.34928 -1.57143,-3.3 0,-0.95071 0.54,-2.26857 1.2,-2.92857 0.66,-0.66 2.24465,-1.2 3.52144,-1.2 1.50477,0 2.72151,0.87805 3.45866,2.49594 0.93966,2.06233 0.82215,2.84409 -0.67642,4.5 -0.99751,1.10223 -2.38677,2.00406 -3.08724,2.00406 -0.70047,0 -1.98073,-0.70714 -2.84501,-1.57143 z m 5.4061,-2.38658 c 0.82906,-1.54912 0.67978,-2.1474 -0.71482,-2.86488 -0.96949,-0.49877 -2.32521,-0.70516 -3.01271,-0.45865 -0.6875,0.24651 -1.25,1.23571 -1.25,2.19821 0,0.9625 0.3,2.05 0.66667,2.41666 C 147.03333,195.7 147.9175,196 148.63148,196 c 0.71399,0 1.76971,-0.88111 2.34605,-1.95801 z M 59.068094,188.09563 C 57.930642,186.49823 57,183.7841 57,182.06424 c 0,-1.96985 0.6041,-3.35882 1.632466,-3.75345 0.897856,-0.34454 2.362736,-0.17037 3.255289,0.38704 1.096526,0.68479 2.144571,0.68436 3.231612,-0.001 0.884833,-0.55814 2.344953,-0.7323 3.24471,-0.38703 C 69.36788,178.69466 70,180.07891 70,181.89189 c 0,1.71974 -1.082049,4.2406 -2.588894,6.03138 C 65.987215,189.61547 63.992857,191 62.979201,191 c -1.013657,0 -2.773655,-1.30697 -3.911107,-2.90437 z M 62,184 c 0,-2.92532 -0.411436,-4 -1.531385,-4 -0.842261,0 -1.760628,0.5974 -2.040814,1.32755 -0.280186,0.73015 -0.0522,2.53015 0.506634,4 C 59.49327,186.7974 60.411636,188 60.975249,188 61.538862,188 62,186.2 62,184 Z m 5.302725,3.25 c 0.231417,-0.4125 0.719028,-1.99738 1.08358,-3.52196 0.488248,-2.04188 0.24358,-2.93284 -0.928959,-3.38278 -0.87548,-0.33595 -2.017158,-0.18545 -2.537063,0.33446 -0.519906,0.5199 -0.658408,2.37965 -0.307783,4.13278 0.350625,1.75312 1.004692,3.1875 1.453483,3.1875 0.448791,0 1.005324,-0.3375 1.236742,-0.75 z m 93.686315,0.5 c -1.08986,-1.7875 -1.98325,-4.2074 -1.9853,-5.37756 -0.002,-1.17015 0.7078,-2.71808 1.57746,-3.43983 1.14392,-0.94937 2.04417,-1.02315 3.25529,-0.2668 1.13826,0.71086 2.18901,0.72068 3.28288,0.0307 0.88483,-0.55814 2.34495,-0.7323 3.24471,-0.38703 1.04686,0.40172 1.63592,1.78962 1.63592,3.85443 0,2.13917 -0.90564,4.17195 -2.68709,6.03138 -1.4779,1.5426 -3.50952,2.80472 -4.5147,2.80472 -1.00518,0 -2.71931,-1.4625 -3.80917,-3.25 z m 4.69407,-0.9375 c -0.31922,-0.79773 -0.55618,-0.56078 -0.60416,0.60417 -0.0434,1.05416 0.19292,1.64479 0.52522,1.3125 0.33229,-0.3323 0.36781,-1.1948 0.0789,-1.91667 z M 164,183.92668 c 0,-3.35079 -0.31042,-4.00903 -1.75,-3.71082 -1.24276,0.25744 -1.68881,1.19664 -1.53888,3.24028 0.11612,1.58278 0.79112,3.24575 1.5,3.6955 0.70889,0.44976 1.40138,0.82463 1.53888,0.83305 0.1375,0.008 0.25,-1.81769 0.25,-4.05801 z m 6.06556,1.40087 c 0.55884,-1.46985 0.77406,-3.3031 0.47828,-4.07391 -0.29579,-0.7708 -1.32665,-1.24953 -2.29082,-1.06385 -0.96416,0.18568 -1.70802,0.89394 -1.65302,1.57391 0.055,0.67996 0.1675,2.3613 0.25,3.7363 0.0825,1.375 0.61114,2.5 1.17475,2.5 0.56361,0 1.48198,-1.2026 2.04081,-2.67245 z M 47.529889,176.04836 c -0.362441,-0.58644 -0.366309,-1.98839 -0.0086,-3.11545 0.479878,-1.51196 1.348841,-1.9684 3.314547,-1.74105 C 52.928774,171.43393 53.5,172.03603 53.5,174 c 0,1.9619 -0.571578,2.56614 -2.655564,2.80731 -1.46056,0.16902 -2.952106,-0.17251 -3.314547,-0.75895 z m 4.023962,-1.13549 c 0.369536,-0.59793 0.171094,-1.58793 -0.440983,-2.2 -0.817157,-0.81716 -1.408579,-0.81716 -2.225736,0 -0.612077,0.61207 -0.810519,1.60207 -0.440983,2.2 C 48.815686,175.51079 49.514919,176 50,176 c 0.485081,0 1.184314,-0.48921 1.553851,-1.08713 z m 124.112819,1.42046 C 175.3,175.96667 175,174.8575 175,173.86852 c 0,-0.98899 0.86875,-2.26309 1.93055,-2.83135 1.45727,-0.77991 2.31532,-0.64844 3.5,0.53624 0.8632,0.8632 1.56945,1.8973 1.56945,2.29802 0,0.40071 -0.54,1.26857 -1.2,1.92857 -0.66,0.66 -1.935,1.2 -2.83333,1.2 -0.89834,0 -1.93334,-0.3 -2.3,-0.66667 z m 3.55,-3.51666 c -0.65084,-0.65084 -1.47143,-0.89524 -1.82354,-0.54313 -0.35211,0.35211 -0.34486,1.40986 0.0161,2.35055 0.50024,1.30358 0.93392,1.43275 1.82354,0.54313 0.88963,-0.88963 0.88579,-1.44865 -0.0161,-2.35055 z M 37.564855,166.07166 c -1.113739,-1.23066 -1.507498,-2.67702 -1.088338,-3.99767 0.361231,-1.13814 1.757634,-2.34564 3.103119,-2.68333 1.373153,-0.34464 3.098674,-0.0726 3.93335,0.62012 C 44.330844,160.68954 45,162.29896 45,163.58726 c 0,1.29238 -0.867052,2.8064 -1.934259,3.37756 C 42.001899,167.53417 40.721644,168 40.220729,168 c -0.500915,0 -1.696058,-0.86775 -2.655874,-1.92834 z m 5.524953,-1.67987 c 1.131444,-1.36331 1.059147,-1.8097 -0.474754,-2.93132 -0.995199,-0.72771 -2.440713,-1.08087 -3.212253,-0.7848 C 38.63126,160.97174 38,161.99083 38,162.94032 c 0,0.94949 0.3,2.02635 0.666667,2.39301 C 39.033333,165.7 39.878233,166 40.544222,166 c 0.665989,0 1.811503,-0.7237 2.545586,-1.60821 z M 185,166 c -1.1,-1.1 -2,-2.41786 -2,-2.92857 0,-0.51072 0.70714,-1.63572 1.57143,-2.5 0.86428,-0.86429 2.34928,-1.57143 3.3,-1.57143 0.95071,0 2.26857,0.54 2.92857,1.2 0.66,0.66 1.2,2.21917 1.2,3.46482 0,1.24565 -0.87042,2.73065 -1.93426,3.3 C 189.0019,167.53417 187.8769,168 187.56574,168 187.25458,168 186.1,167.1 185,166 Z m 5.04165,-1.55019 c 1.06129,-1.27878 1.00398,-1.83275 -0.32736,-3.1641 -1.33135,-1.33134 -1.88532,-1.38865 -3.1641,-0.32736 -0.85261,0.7076 -1.55019,1.86894 -1.55019,2.58076 0,0.71182 0.5625,1.5212 1.25,1.79861 0.6875,0.27741 1.5324,0.53991 1.87756,0.58333 0.34515,0.0434 1.20649,-0.61863 1.91409,-1.47124 z m -158.207752,-8.7024 c -0.84771,-0.68607 -2.282127,-2.36004 -3.187594,-3.71992 C 27.740837,150.66762 27,148.58522 27,147.39994 c 0,-1.18528 0.711541,-2.74558 1.581201,-3.46733 1.143917,-0.94937 2.044174,-1.02315 3.25529,-0.2668 1.138262,0.71086 2.189014,0.72068 3.282876,0.0307 0.884833,-0.55814 2.282509,-0.75626 3.105947,-0.44028 0.823437,0.31598 1.737741,1.4945 2.031785,2.61892 0.294044,1.12443 -0.243254,3.49486 -1.193996,5.26762 -0.950741,1.77276 -2.619462,3.81469 -3.708268,4.53763 -1.586165,1.05318 -2.286,1.0665 -3.520937,0.067 z m 1.849216,-2.93491 c -0.319226,-0.79773 -0.556183,-0.56078 -0.604167,0.60417 -0.04342,1.05416 0.192928,1.64479 0.52522,1.3125 0.332291,-0.3323 0.367818,-1.1948 0.07895,-1.91667 z M 32.333275,145.75 c -0.24822,-0.4125 -1.051606,-0.75 -1.785303,-0.75 -0.733697,0 -1.565052,0.60213 -1.847455,1.33806 -0.282403,0.73593 0.225782,2.86442 1.129301,4.72998 l 1.642761,3.39194 0.656002,-3.97999 c 0.360801,-2.189 0.452914,-4.31749 0.204694,-4.72999 z m 5.819623,4.81377 c 0.610512,-1.33993 0.839987,-3.13993 0.509946,-4 C 38.332803,145.7037 37.373646,145 36.531385,145 35.411436,145 35,146.07468 35,149 c 0,2.2 0.459647,4 1.021439,4 0.561791,0 1.520948,-1.0963 2.131459,-2.43623 z m 153.952622,3.54918 C 189.88284,151.73358 189,149.81464 189,147.36286 c 0,-2.05826 0.57449,-3.64608 1.43926,-3.97793 0.7916,-0.30376 2.22471,-0.11273 3.18471,0.42451 1.16312,0.65091 2.32399,0.6155 3.47954,-0.10615 1.28458,-0.80224 2.14396,-0.7428 3.31529,0.22932 0.86966,0.72175 1.5812,2.38879 1.5812,3.70452 0,1.3257 -1.51338,4.04362 -3.39448,6.09626 l -3.39449,3.70403 z m 1.42984,-4.36295 c -0.0257,-3.0954 -0.44287,-4.25 -1.53536,-4.25 -1.02797,0 -1.43698,0.89295 -1.29974,2.8376 0.11014,1.56068 0.72774,3.47318 1.37244,4.25 0.64471,0.77682 1.2455,1.4124 1.33511,1.4124 0.0896,0 0.147,-1.9125 0.12755,-4.25 z M 200,147.87756 C 200,146.03877 199.47982,145 198.55902,145 c -0.79254,0 -1.72589,0.46098 -2.0741,1.0244 -0.34821,0.56342 -0.33429,2.38492 0.0309,4.04779 0.54045,2.46067 0.92648,2.80559 2.07409,1.85316 C 199.36548,151.28172 200,149.46021 200,147.87756 Z M 24.384042,138.55841 c -0.304254,-0.79287 -0.397463,-2.2502 -0.207132,-3.23851 0.190331,-0.98831 1.211146,-1.96353 2.268476,-2.16716 1.057331,-0.20362 2.497227,0.41588 3.19977,1.37666 0.898964,1.22941 0.982178,2.29842 0.280914,3.60874 C 29.378029,139.16216 28.031342,140 26.933431,140 c -1.09791,0 -2.245136,-0.64871 -2.549389,-1.44159 z M 28.750467,136.25 C 28.994588,135.51682 28.305306,135 27.083333,135 25.854996,135 25,135.64569 25,136.57332 c 0,0.93124 0.68037,1.44138 1.667134,1.25 0.916923,-0.17782 1.854423,-0.88582 2.083333,-1.57332 z m 170.690663,2.30857 c -1.55422,-1.15413 -1.72009,-1.80192 -0.83214,-3.25 0.60994,-0.99471 2.17878,-1.80857 3.4863,-1.80857 1.49326,0 2.50609,0.66864 2.72359,1.79804 0.19045,0.98892 -0.19599,2.45142 -0.85875,3.25 -0.66276,0.79858 -1.51391,1.45196 -1.89145,1.45196 -0.37753,0 -1.55993,-0.64864 -2.62755,-1.44143 z m 4.3297,-2.37107 C 203.99194,135.52417 203.24708,135 202.08333,135 200.9375,135 200,135.375 200,135.83333 c 0,0.45834 0.30937,1.14271 0.6875,1.52084 0.37812,0.37812 1.1375,0.5375 1.6875,0.35416 0.55,-0.18333 1.17812,-0.86771 1.39583,-1.52083 z M 20.360768,124.49776 c -0.317054,-0.82623 -0.294357,-2.62623 0.05044,-4 C 20.905611,118.5279 21.672651,118 24.040491,118 c 2.222528,0 3.294753,0.64167 4.12797,2.47039 0.860665,1.88895 0.826801,2.83039 -0.143884,4 C 27.326371,125.31167 25.446088,126 23.84617,126 c -1.665158,0 -3.155419,-0.64231 -3.485402,-1.50224 z m 5.057445,-0.10475 C 26.288196,124.05917 27,122.98231 27,122 c 0,-0.98231 -0.675,-2.04504 -1.5,-2.36163 -0.825,-0.31658 -2.175,-0.31658 -3,0 -0.825,0.31659 -1.5,1.11246 -1.5,1.76862 0,0.65615 0.54,1.73301 1.2,2.39301 0.66,0.66 1.298196,1.2 1.418213,1.2 0.120016,0 0.930016,-0.27314 1.8,-0.60699 z M 201.2,124.8 c -0.66,-0.66 -1.2,-1.92 -1.2,-2.8 0,-0.88 0.54,-2.14 1.2,-2.8 0.66,-0.66 2.21917,-1.2 3.46482,-1.2 1.24565,0 2.74648,0.9 3.33518,2 0.76049,1.42099 0.76049,2.57901 0,4 -0.5887,1.1 -2.08953,2 -3.33518,2 -1.24565,0 -2.80482,-0.54 -3.46482,-1.2 z m 6.16324,-2.30421 c 0.28483,-0.74226 -0.12464,-1.88281 -0.90995,-2.53455 -0.7853,-0.65175 -2.10855,-0.92377 -2.94056,-0.6045 -0.832,0.31927 -1.51273,1.45711 -1.51273,2.52854 0,1.07143 0.5625,2.14426 1.25,2.38408 0.6875,0.23981 1.77771,0.24252 2.42268,0.006 0.64498,-0.2365 1.40573,-1.03731 1.69056,-1.77958 z M 19.068094,110.09563 C 17.930642,108.49823 17,105.7841 17,104.06424 c 0,-1.96985 0.6041,-3.35882 1.632466,-3.75345 0.897856,-0.344535 2.451994,-0.11463 3.453639,0.51091 1.15913,0.72389 2.041244,0.78126 2.426552,0.15782 C 24.845614,100.44078 25.943331,100 26.952028,100 c 1.008697,0 2.107139,0.7118 2.440983,1.58179 C 29.726855,102.45177 30,103.99224 30,105.00506 c 0,1.01282 -1.165002,3.22602 -2.588894,4.91821 C 25.987215,111.61547 23.992857,113 22.979201,113 c -1.013657,0 -2.773655,-1.30697 -3.911107,-2.90437 z m 4.61502,-0.28313 c -0.319226,-0.79773 -0.556183,-0.56078 -0.604167,0.60417 -0.04342,1.05416 0.192928,1.64479 0.52522,1.3125 0.332291,-0.3323 0.367818,-1.1948 0.07895,-1.91667 z m -1.867331,-5.01293 c -0.173681,-1.1786 -0.878046,-2.32808 -1.565257,-2.5544 -0.687211,-0.22632 -1.533868,0.32963 -1.88146,1.23544 -0.347592,0.90581 -0.08569,2.84593 0.582013,4.31136 1.089969,2.39223 1.314451,2.48494 2.197242,0.90748 0.540784,-0.96633 0.841142,-2.72127 0.667462,-3.89988 z M 29,104.35783 c 0,-0.78133 -0.705248,-1.69123 -1.567217,-2.022 -0.86197,-0.33077 -1.992595,-0.17602 -2.5125,0.34389 -0.519906,0.5199 -0.643631,2.45354 -0.274945,4.29697 l 0.670338,3.35169 1.842162,-2.27497 C 28.171027,106.80217 29,105.13916 29,104.35783 Z M 200.98904,109.75 c -1.08986,-1.7875 -1.98325,-4.2074 -1.9853,-5.37756 -0.002,-1.17015 0.7078,-2.71808 1.57746,-3.43983 1.14392,-0.949368 2.04417,-1.02315 3.25529,-0.2668 1.13826,0.71086 2.18901,0.72068 3.28288,0.0307 0.88483,-0.55814 2.34495,-0.732301 3.24471,-0.38703 0.92987,0.35682 1.63592,1.74172 1.63592,3.20881 0,1.41957 -0.65836,3.85416 -1.46301,5.4102 -0.80466,1.55604 -2.19147,3.10869 -3.08179,3.45034 -0.89033,0.34165 -2.26358,0.62118 -3.05169,0.62118 -0.7881,0 -2.32461,-1.4625 -3.41447,-3.25 z M 204,106 c 0,-2.88889 -0.41667,-4 -1.5,-4 -0.97619,0 -1.5,0.97778 -1.5,2.8 0,1.54 0.54,3.34 1.2,4 0.66,0.66 1.335,1.2 1.5,1.2 0.165,0 0.3,-1.8 0.3,-4 z m 6.46511,0.283 c 0.35508,-1.41476 0.20094,-3.01695 -0.34254,-3.56043 -0.54347,-0.54347 -1.74007,-0.69959 -2.65911,-0.34692 -1.01588,0.38983 -1.43427,1.25803 -1.06721,2.21457 0.33206,0.86534 0.60375,2.42243 0.60375,3.46018 0,1.21266 0.50371,1.69354 1.40975,1.34586 0.77537,-0.29754 1.70028,-1.6985 2.05536,-3.11326 z M 21.309468,94.364077 c -0.345269,-0.899757 -0.169602,-2.362257 0.390371,-3.25 C 22.259813,90.226335 23.519885,89.5 24.5,89.5 c 0.980115,0 2.254976,0.74978 2.833025,1.666177 0.762694,1.209122 0.690424,2.100643 -0.263458,3.25 C 26.346616,95.28728 24.896088,96 23.84617,96 22.796253,96 21.654737,95.263835 21.309468,94.364077 Z M 26,93.059017 C 26,92.541476 25.55,91.839919 25,91.5 24.45,91.160081 23.54266,91.164618 22.983688,91.51008 22.424717,91.855544 22.226274,92.557101 22.542705,93.069097 22.859136,93.581094 23.766476,94 24.559017,94 25.351558,94 26,93.576558 26,93.059017 Z m 176.01057,1.453718 c -0.67888,-0.817996 -0.96918,-2.178202 -0.64513,-3.022681 0.32406,-0.844479 1.33948,-1.823326 2.25649,-2.175215 1.02473,-0.393225 2.17471,0.05415 2.98393,1.160821 0.93212,1.274754 1.02564,2.344372 0.32021,3.66248 C 206.37803,95.162163 205.32557,96 204.58726,96 c -0.7383,0 -1.89781,-0.669269 -2.57669,-1.487265 z M 206,92.5 c 0,-0.825 -0.675,-1.5 -1.5,-1.5 -0.825,0 -1.5,0.675 -1.5,1.5 0,0.825 0.675,1.5 1.5,1.5 0.825,0 1.5,-0.675 1.5,-1.5 z M 26.2,80.8 C 25.54,80.14 25,78.580833 25,77.335184 c 0,-1.255354 0.908265,-2.750905 2.037773,-3.355399 1.120775,-0.599821 2.919729,-0.810661 3.997676,-0.468534 1.077947,0.342127 2.236199,1.7229 2.573894,3.068385 0.34464,1.373153 0.0726,3.098674 -0.62012,3.93335 C 32.310461,81.330844 30.775211,82 29.577555,82 28.3799,82 26.86,81.46 26.2,80.8 Z m 4.648393,-0.68514 c 0.741616,-0.469983 1.186449,-1.695425 0.988517,-2.723204 -0.197933,-1.027779 -1.190008,-2.028558 -2.204613,-2.223953 -1.014605,-0.195395 -2.288626,0.08863 -2.831157,0.631157 -0.648562,0.648562 -0.60013,1.708214 0.141403,3.093781 0.620304,1.159047 1.449492,2.100468 1.842641,2.092046 0.393149,-0.0084 1.321593,-0.399844 2.063209,-0.869827 z M 196.2,80.8 c -0.66,-0.66 -1.2,-2.1799 -1.2,-3.377555 0,-1.197656 0.65338,-2.719815 1.45196,-3.382576 0.79858,-0.662761 2.20731,-1.055361 3.13052,-0.872445 0.92321,0.182917 2.28887,1.253446 3.03481,2.378955 1.15569,1.743749 1.128,2.372262 -0.18722,4.25 C 201.58116,81.00837 200.10211,82 199.1433,82 198.18448,82 196.86,81.46 196.2,80.8 Z M 202,76.877555 C 202,75.563881 201.28131,75 199.60699,75 c -1.31616,0 -2.64704,0.661978 -2.95751,1.471061 -0.31048,0.809084 0.13905,2.174617 0.99896,3.034517 1.20548,1.205481 1.88264,1.298554 2.95751,0.406495 C 201.37268,79.275744 202,77.910211 202,76.877555 Z M 33.53595,64.860355 c -1.872507,-2.225349 -2.553617,-4.045411 -2.338893,-6.25 0.278397,-2.858334 0.602731,-3.113046 4.002816,-3.143561 2.03493,-0.01826 4.006597,-0.339931 4.381483,-0.714816 0.374885,-0.374886 1.522443,-0.23161 2.550127,0.31839 C 43.200764,55.642629 44,57.153203 44,58.601906 44,59.994252 42.82159,62.678419 41.381311,64.566722 39.941032,66.455025 38.181034,68 37.470205,68 36.759375,68 34.988961,66.58716 33.53595,64.860355 Z M 35.535361,60.75 c -0.02561,-3.077846 -0.445285,-4.25 -1.521666,-4.25 -0.817468,0 -1.642225,0.809626 -1.832793,1.799169 -0.190569,0.989543 0.376142,2.902043 1.259358,4.25 C 34.323475,63.897126 35.164145,65 35.308414,65 c 0.144269,0 0.246395,-1.9125 0.226947,-4.25 z m 6.49827,0.661545 C 42.534276,60.094747 42.683374,58.33846 42.364959,57.508684 42.046544,56.678908 41.185725,56 40.452028,56 c -0.733697,0 -1.568667,0.379708 -1.855489,0.843796 -0.286822,0.464088 -0.255951,2.480153 0.0686,4.480144 0.324554,1.999991 1.010427,3.37657 1.524161,3.059064 0.513735,-0.317505 1.343682,-1.654662 1.844328,-2.971459 z M 187.4786,64.560829 c -1.73453,-2.274087 -2.514,-4.391392 -2.30089,-6.25 C 185.49107,55.577848 185.66617,55.5 191.5,55.5 c 5.98237,0 6.00089,0.0091 6.30294,3.110355 0.21473,2.204589 -0.46638,4.024651 -2.33889,6.25 C 194.01104,66.58716 192.21012,68 191.462,68 c -0.74812,0 -2.54065,-1.547627 -3.9834,-3.439171 z m 1.54798,-7.934248 c -0.81315,-0.81315 -1.3333,-0.748326 -1.94565,0.242476 -0.45969,0.743787 -0.60096,2.315025 -0.31393,3.491641 0.28703,1.176616 1.01937,2.776978 1.62743,3.55636 0.871,1.116397 1.17309,0.611049 1.42379,-2.381778 0.17502,-2.089361 -0.18122,-4.298275 -0.79164,-4.908699 z M 197,58.857831 c 0,-1.05633 -0.72042,-2.19705 -1.60092,-2.534933 -0.88051,-0.337883 -1.91586,-0.104772 -2.30076,0.518023 -0.38491,0.622796 -0.50498,2.801468 -0.26682,4.841493 l 0.43302,3.709136 1.86774,-2.306559 C 196.15952,61.816384 197,59.914162 197,58.857831 Z M 44.053051,49.563922 c -0.884668,-1.06596 -0.907158,-1.968009 -0.08726,-3.5 C 44.573308,44.928765 45.639535,44 46.335184,44 47.030833,44 48.14,44.54 48.8,45.2 c 0.66,0.66 1.2,1.961855 1.2,2.893011 0,0.931156 -0.711804,1.966156 -1.581787,2.3 C 47.548229,50.726855 46.47833,51 46.040657,51 45.602985,51 44.708562,50.353765 44.053051,49.563922 Z m 4.24977,-2.050227 C 48.41127,46.971227 47.7125,46.375731 46.75,46.190371 45.655397,45.97957 45,46.470042 45,47.5 c 0,0.960727 0.646837,1.511966 1.552821,1.323324 0.854052,-0.177828 1.641552,-0.767161 1.75,-1.309629 z M 179.41096,49.62855 c -0.31906,-0.831448 -0.42339,-2.325509 -0.23184,-3.320137 0.2246,-1.166268 1.23113,-1.808413 2.83458,-1.808413 2.09589,0 2.4863,0.471073 2.4863,3 0,2.35154 -0.48731,3.069199 -2.25447,3.320137 -1.32218,0.187751 -2.49436,-0.305003 -2.83457,-1.191587 z M 184,47.5 c 0,-0.825 -0.64844,-1.5 -1.44098,-1.5 -0.79254,0 -1.68031,0.387234 -1.97282,0.86052 -0.2925,0.473286 -0.24406,1.148286 0.10765,1.5 C 181.04557,48.712234 181.93333,49 182.66667,49 183.4,49 184,48.325 184,47.5 Z M 52.75,41.919901 C 51.7875,41.359296 51,39.88798 51,38.65031 51,37.412639 51.54,35.86 52.2,35.2 52.86,34.54 54.345,34 55.5,34 c 1.155,0 2.64,0.54 3.3,1.2 0.66,0.66 1.2,1.977857 1.2,2.928571 0,0.950715 -0.707143,2.435715 -1.571429,3.3 -0.864285,0.864286 -2.101785,1.557745 -2.75,1.54102 C 55.030357,42.952867 53.7125,42.480506 52.75,41.919901 Z m 4.75,-3.406206 c 0,-1.139964 -0.790913,-2.138621 -1.85622,-2.34378 -1.020921,-0.196612 -2.318173,0.104478 -2.882782,0.669087 -0.56461,0.56461 -0.743823,1.763373 -0.398251,2.663917 0.385785,1.005342 1.498529,1.513783 2.882782,1.317218 C 56.720704,40.610661 57.5,39.8134 57.5,38.513695 Z m 113.07143,2.914876 C 169.70714,40.564286 169,39.079286 169,38.128571 169,37.177857 169.54,35.86 170.2,35.2 c 0.66,-0.66 2.24465,-1.2 3.52144,-1.2 1.50477,0 2.72151,0.878053 3.45866,2.495938 0.93966,2.062331 0.82215,2.844092 -0.67642,4.5 C 175.50617,42.098172 174.11691,43 173.41644,43 c -0.70047,0 -1.98073,-0.707143 -2.84501,-1.571429 z m 5.26548,-2.820227 c 0.19793,-1.027779 -0.20609,-2.218478 -0.89783,-2.645997 -0.69174,-0.427518 -1.86102,-0.545796 -2.5984,-0.262838 C 171.60331,35.982467 171,36.990833 171,37.940322 c 0,0.94949 0.31556,2.041901 0.70124,2.427581 0.38568,0.38568 1.39301,0.568012 2.23851,0.405183 0.84551,-0.162829 1.69923,-1.136963 1.89716,-2.164742 z M 65.650805,32.996852 C 64.268872,31.354519 62.857176,29.125361 62.513701,28.043168 62.170226,26.960976 62.379964,25.158548 62.979785,24.037773 63.579605,22.916998 64.702977,22 65.476167,22 c 0.773189,0 1.673427,0.433031 2.000527,0.96229 0.372427,0.6026 1.525983,0.537982 3.086143,-0.172874 1.847296,-0.841685 2.782622,-0.843957 3.617791,-0.0088 0.619507,0.619507 1.086112,2.542531 1.036899,4.273386 -0.04921,1.730856 -0.900753,4.043461 -1.892313,5.139122 -0.99156,1.095662 -2.558604,2.396587 -3.48232,2.890945 -1.272691,0.681123 -2.288071,0.175568 -4.192089,-2.087229 z M 67.526577,25.25 C 67.271483,24.5625 66.373646,24 65.531385,24 64.650421,24 64,24.877377 64,26.065741 c 0,1.136158 0.528268,3.048658 1.17393,4.25 1.151387,2.142315 1.189701,2.12665 1.995192,-0.815741 0.451695,-1.65 0.612549,-3.5625 0.357455,-4.25 z M 74,26.30887 C 74,24.666667 73.422517,24 72,24 c -1.448629,0 -2,0.666667 -2,2.418213 0,1.330016 0.297372,3.193151 0.660827,4.140299 0.616836,1.607449 0.749974,1.60017 2,-0.109343 C 73.397372,29.441884 74,27.578749 74,26.30887 Z m 82.65081,6.687982 c -1.38194,-1.642333 -2.79363,-3.871491 -3.13711,-4.953684 -0.34347,-1.082192 -0.13374,-2.88462 0.46608,-4.005395 C 154.57961,22.916998 155.70298,22 156.47617,22 c 0.77319,0 1.67342,0.433031 2.00052,0.96229 0.37091,0.600143 1.56337,0.52095 3.16857,-0.210428 2.2086,-1.006307 2.77747,-0.894529 4.00888,0.78771 0.86417,1.180555 1.18741,2.954947 0.81254,4.460428 -0.34238,1.375 -1.36991,3.329181 -2.2834,4.342624 -0.9135,1.013443 -2.41667,2.247099 -3.34039,2.741457 -1.27269,0.681123 -2.28807,0.175568 -4.19208,-2.087229 z M 158.52658,25.25 C 158.27148,24.5625 157.37365,24 156.53138,24 155.52082,24 155,24.952274 155,26.8 c 0,1.54 0.55595,3.355946 1.23544,4.035436 0.98058,0.980582 1.39216,0.660837 1.99519,-1.55 0.41786,-1.53199 0.55104,-3.347936 0.29595,-4.035436 z M 165,26.877555 C 165,24.666667 164.53664,24 163,24 c -1.44863,0 -2,0.666667 -2,2.418213 0,1.330016 0.27755,3.141502 0.61678,4.025523 0.4774,1.244067 0.92939,1.347876 2,0.459343 C 164.37755,30.271696 165,28.460211 165,26.877555 Z M 108.20945,24.58577 c -1.64875,-1.877826 -3.50888,-4.963007 -4.13361,-6.855958 -0.7913,-2.397686 -0.82797,-4.251567 -0.12086,-6.111396 0.55825,-1.468317 1.77254,-2.9603631 2.69843,-3.3156579 0.92588,-0.3552948 2.93208,0.070639 4.45821,0.9465205 2.43624,1.3982074 2.92379,1.4129784 3.99599,0.1210582 0.67166,-0.8092991 2.38139,-1.3362018 3.79941,-1.1708949 1.66345,0.1939196 3.04852,1.2863398 3.90377,3.0789601 1.03982,2.179473 1.07738,3.530416 0.17424,6.266963 -0.63323,1.918708 -2.62955,5.055928 -4.43626,6.971598 C 116.74206,26.432633 114.3511,28 113.23552,28 c -1.11559,0 -3.37732,-1.536403 -5.02607,-3.41423 z M 113.88169,22.25 c -0.10176,-4.085186 -0.21368,-4.330117 -0.79967,-1.75 -0.37475,1.65 -0.49402,3.7875 -0.26506,4.75 0.22897,0.9625 0.58882,1.75 0.79967,1.75 0.21085,0 0.33013,-2.1375 0.26506,-4.75 z m -2.95203,-10.834753 c -0.69006,-0.831468 -2.19403,-1.377545 -3.34215,-1.213504 -1.31633,0.188072 -2.21049,1.167048 -2.42039,2.64997 -0.18308,1.293442 -0.0804,3.357825 0.22827,4.587518 0.30864,1.229693 1.58343,3.536941 2.83288,5.127219 l 2.27173,2.891413 0.84216,-6.265427 c 0.61948,-4.60881 0.51041,-6.665146 -0.4125,-7.777189 z m 9.63628,8.457246 C 121.35467,18.347248 122,15.742806 122,14.084844 c 0,-1.979373 -0.67889,-3.377805 -1.97708,-4.072579 -1.55222,-0.8307218 -2.37527,-0.6599145 -3.83003,0.794846 -1.6478,1.647799 -1.74055,2.532589 -0.83771,7.991653 0.83484,5.047941 1.26057,5.935095 2.39597,4.992804 0.7594,-0.630246 2.02605,-2.39383 2.81479,-3.919075 z M 79.444837,22.826196 C 78.966964,21.320553 79.296081,20.256669 80.515589,19.364942 81.756649,18.457457 82.82577,18.371571 84.13814,19.07393 85.162163,19.621971 86,20.639535 86,21.335184 86,22.030833 85.46,23.14 84.8,23.8 84.14,24.46 82.820324,25 81.867388,25 80.914451,25 79.824303,24.021788 79.444837,22.826196 Z M 84,21.440983 C 84,20.648442 83.4,20 82.666667,20 c -0.733334,0 -1.629429,0.296096 -1.991324,0.657991 -0.361895,0.361895 -0.160907,1.25694 0.44664,1.988989 0.607547,0.73205 1.503643,1.084396 1.991324,0.782993 C 83.600988,23.128569 84,22.233524 84,21.440983 Z m 59.30947,1.923094 c -0.34527,-0.899757 -0.17042,-2.362257 0.38857,-3.25 0.55898,-0.887742 1.75774,-1.759985 2.6639,-1.938318 0.98816,-0.194468 1.99982,0.606004 2.52766,2 0.54235,1.432337 0.49354,2.803916 -0.12721,3.574241 -0.554,0.6875 -1.8663,1.25 -2.91622,1.25 -1.04992,0 -2.19143,-0.736165 -2.5367,-1.635923 z M 148,21.5 c 0,-0.825 -0.64844,-1.5 -1.44098,-1.5 -0.79254,0 -1.68031,0.387234 -1.97282,0.86052 -0.2925,0.473286 -0.24406,1.148286 0.10765,1.5 C 145.04557,22.712234 145.93333,23 146.66667,23 147.4,23 148,22.325 148,21.5 Z M 92.75,21.919901 C 91.7875,21.359296 91,19.88798 91,18.65031 91,17.412639 91.54,15.86 92.2,15.2 92.86,14.54 94.345,14 95.5,14 c 1.155,0 2.64,0.54 3.3,1.2 0.66,0.66 1.2,1.984483 1.2,2.943296 0,0.958813 -1.000128,2.443813 -2.222506,3.3 -1.222379,0.856187 -2.459879,1.54302 -2.75,1.526295 C 94.737372,22.952867 93.7125,22.480506 92.75,21.919901 Z m 5.052872,-3.552839 c 0.172892,-1.205906 -0.363557,-2.368239 -1.25,-2.7084 C 95.698792,15.330921 94.325,15.321791 93.5,15.638374 92.675,15.954956 92,16.750833 92,17.406989 c 0,0.656156 0.553134,1.746145 1.229187,2.422198 0.676053,0.676053 1.913553,1.098956 2.75,0.939784 0.836447,-0.159171 1.657105,-1.24003 1.823685,-2.401909 z M 130.2,20.8 c -0.66,-0.66 -1.2,-2.186855 -1.2,-3.393011 0,-1.206156 0.7118,-2.466156 1.58179,-2.8 C 131.45177,14.273145 133.01094,14 134.0466,14 c 1.03567,0 2.3647,0.9 2.9534,2 0.76049,1.420989 0.76049,2.579011 0,4 -0.5887,1.1 -2.08953,2 -3.33518,2 C 132.41917,22 130.86,21.46 130.2,20.8 Z m 4.64839,-0.68514 c 0.74162,-0.469983 1.18645,-1.695425 0.98852,-2.723204 -0.19793,-1.027779 -1.14357,-2.019615 -2.10142,-2.204079 -0.95785,-0.184465 -2.01332,0.372868 -2.3455,1.238516 -0.33218,0.865649 -0.34495,2.248907 -0.0284,3.073907 0.31658,0.825 0.92722,1.493109 1.35699,1.484687 0.42976,-0.0084 1.38816,-0.399844 2.12977,-0.869827 z" />
  </g>
</svg>
