<?xml version="1.0" encoding="UTF-8" standalone="no"?>
<!-- Created with Inkscape (http://www.inkscape.org/) -->

<svg
   version="1.1"
   id="svg1"
   width="188.9198"
   height="62"
   viewBox="0 0 188.9198 62"
   xmlns="http://www.w3.org/2000/svg"
   xmlns:svg="http://www.w3.org/2000/svg">
  <defs
     id="defs1" />
  <g
     id="layer8"
     style="display:inline"
     transform="translate(-215.84934,-405)">
    <path
       id="path1442"
       style="display:inline;fill:#000000"
       d="m 309.69385,466.36052 c -0.35171,-0.35171 -0.40015,-1.02671 -0.10765,-1.5 0.29251,-0.47329 0.95528,-0.86052 1.47282,-0.86052 0.51754,0 0.94098,0.675 0.94098,1.5 0,0.825 -0.375,1.5 -0.83333,1.5 -0.45834,0 -1.1211,-0.28777 -1.47282,-0.63948 z m -8.95828,-3.95829 c -0.32877,-0.32877 -0.35563,-1.22877 -0.0597,-2 0.29595,-0.77122 1.16494,-1.40223 1.9311,-1.40223 0.76615,0 1.39301,0.9 1.39301,2 0,1.1 -0.6,2 -1.33333,2 -0.73334,0 -1.60233,-0.26899 -1.9311,-0.59777 z m 16.71058,-0.48936 c -0.36954,-0.59793 -0.2103,-1.54872 0.35385,-2.11287 0.56415,-0.56415 1.51494,-0.72339 2.11287,-0.35385 0.59792,0.36954 1.08713,1.32033 1.08713,2.11287 0,0.79254 -0.64844,1.44098 -1.44098,1.44098 -0.79254,0 -1.74333,-0.48921 -2.11287,-1.08713 z m -25.08196,-3.40618 c -0.34636,-0.90262 -0.15025,-2.12063 0.43581,-2.70669 0.58606,-0.58606 1.80407,-0.78217 2.70669,-0.43581 0.90262,0.34637 1.4902,1.41345 1.30573,2.3713 -0.18446,0.95785 -1.11908,1.89247 -2.07693,2.07693 -0.95785,0.18447 -2.02493,-0.40311 -2.3713,-1.30573 z M 325,457.57332 C 325,455.63784 325.51297,455 327.06955,455 c 1.57185,0 1.9927,0.53864 1.75,2.23978 -0.17575,1.23189 -1.10705,2.38988 -2.06955,2.57333 -1.29971,0.24772 -1.75,-0.3286 -1.75,-2.23979 z m -16.17156,-1.97948 c -1.46935,-0.76661 -4.3092,-1.39384 -6.31076,-1.39384 -2.0674,0 -4.47731,-0.75848 -5.57967,-1.7561 -1.06726,-0.96586 -3.55541,-4.64389 -5.52923,-8.1734 -2.54292,-4.54718 -3.41127,-7.12445 -2.97971,-8.8439 0.33497,-1.33463 1.00764,-2.4266 1.49483,-2.4266 0.48718,0 0.65306,-1.73513 0.36861,-3.85584 -0.28445,-2.12072 -0.0269,-4.77197 0.57237,-5.89169 0.59925,-1.11971 3.56798,-3.43458 6.59718,-5.14415 3.02921,-1.70958 6.35377,-3.10832 7.38793,-3.10832 1.03416,0 3.04979,0.91993 4.47918,2.04428 2.43396,1.91456 2.79099,1.94494 5.62623,0.47879 1.81385,-0.93799 4.04348,-1.31047 5.56235,-0.92926 1.39425,0.34994 3.03023,1.59698 3.63552,2.77122 0.60528,1.17423 2.84341,3.83918 4.97362,5.9221 3.31202,3.23849 3.87311,4.4112 3.87311,8.09501 0,3.02619 -0.59024,4.84204 -1.98383,6.10322 -1.37077,1.24054 -1.80024,2.52679 -1.38976,4.16228 0.34653,1.38068 -0.0446,3.34167 -0.93871,4.70624 -0.84303,1.28662 -3.03013,2.91723 -4.86024,3.62358 -1.8301,0.70635 -5.15704,2.12538 -7.39318,3.1534 -2.23615,1.02803 -4.26115,1.86637 -4.5,1.86298 -0.23886,-0.003 -1.63648,-0.63339 -3.10584,-1.4 z M 316.72713,453 c 1.39842,-1.1 3.41148,-2 4.47347,-2 1.06199,0 2.82668,-0.47942 3.92155,-1.06537 1.09486,-0.58596 2.36211,-2.04846 2.81609,-3.25 0.45797,-1.2121 0.4172,-2.96367 -0.0916,-3.93463 -0.50436,-0.9625 -1.65968,-1.75 -2.56738,-1.75 -0.9077,0 -2.62009,0.911 -3.8053,2.02445 -1.27037,1.19345 -3.67212,2.0815 -5.85105,2.16341 -2.03286,0.0764 -4.21964,-0.38458 -4.85951,-1.02445 C 310.12353,443.52353 309.03539,443 308.34531,443 c -0.69007,0 -1.55488,1.60016 -1.92178,3.55592 -0.54308,2.89486 -0.24024,4.01028 1.629,6 1.26286,1.34424 3.15918,2.44408 4.21405,2.44408 1.05488,0 3.06213,-0.9 4.46055,-2 z m -11.49418,-4.75 c 0.34303,-3.75135 0.0122,-5.22305 -1.57362,-7 C 302.53246,439.9873 300.48795,439 299,439 c -1.53516,0 -3.64013,-1.05248 -5,-2.5 -1.29175,-1.375 -2.72019,-2.5 -3.17431,-2.5 -0.45413,0 -0.82569,1.11824 -0.82569,2.48498 0,1.36673 1.42274,4.85423 3.16164,7.75 1.7389,2.89576 4.1014,6.04251 5.25,6.99278 1.1486,0.95027 3.05555,1.73777 4.23767,1.75 1.84054,0.019 2.2117,-0.66012 2.58364,-4.72776 z m 15.58512,-6.97717 c 0.79266,-1.06087 1.11353,-3.12049 0.79898,-5.1286 -0.2891,-1.84567 -1.22747,-4.42691 -2.08527,-5.73607 -0.8578,-1.30917 -2.67489,-3.11105 -4.03799,-4.00418 -1.36309,-0.89314 -3.15409,-1.36458 -3.97999,-1.04765 -1.18986,0.45659 -1.28008,1.06253 -0.43451,2.91835 0.58693,1.28816 2.4189,2.85235 4.07104,3.47596 2.32586,0.87792 2.93007,1.65388 2.67679,3.4377 -0.21593,1.52074 -1.6018,2.90271 -4.07712,4.06563 -2.0625,0.96897 -3.75,2.17073 -3.75,2.67057 0,0.49983 0.5625,1.1564 1.25,1.45903 0.6875,0.30262 2.82352,0.3504 4.74672,0.10616 1.9232,-0.24423 4.0928,-1.24184 4.82135,-2.2169 z m -12.20004,-0.46381 c 0.40484,-0.65504 0.2064,-1.36754 -0.44098,-1.58334 C 307.52967,439.00989 307,437.31819 307,435.46636 c 0,-2.13131 0.62491,-3.7167 1.70276,-4.31989 1.43581,-0.80352 1.495,-1.20326 0.37756,-2.54969 C 308.35145,427.71855 306.48141,427 304.92467,427 c -2.82046,0 -2.82842,0.0185 -2.2585,5.25 0.31457,2.8875 1.20374,6.2625 1.97594,7.5 0.7722,1.2375 1.81706,2.25 2.32193,2.25 0.50486,0 1.24916,-0.53594 1.65399,-1.19098 z m 21.48614,-2.91319 c 1.57138,-1.57138 1.95424,-2.85376 1.51207,-5.06464 -0.32565,-1.62826 -2.96003,-5.62092 -5.85417,-8.87257 -2.89414,-3.25165 -6.07915,-5.92257 -7.07781,-5.93536 -0.99866,-0.0128 -2.64557,0.42085 -3.6598,0.96365 -1.19069,0.63724 -1.66061,1.68844 -1.32629,2.96688 0.28477,1.08899 1.31889,2.23424 2.29803,2.54501 0.97915,0.31076 2.93464,2.30941 4.34554,4.44142 1.41091,2.13202 2.7742,5.15516 3.02954,6.71809 0.25534,1.56293 0.50126,3.17919 0.54649,3.59169 C 323.963,439.6625 324.9,440 326,440 c 1.1,0 2.94687,-0.94687 4.10417,-2.10417 z m -29.21702,-5.22558 c -0.1186,-2.93136 0.13657,-5.89961 0.56703,-6.59612 0.47292,-0.76519 2.01629,-1.08531 3.89978,-0.80887 1.71442,0.25162 4.02363,-0.0426 5.13158,-0.65388 1.10795,-0.61126 2.20665,-1.22857 2.44156,-1.37181 0.2349,-0.14324 -0.86179,-1.60574 -2.43709,-3.25 C 308.45883,417.86948 306.67946,417 304.37193,417 c -1.78964,0 -3.53599,0.45643 -3.88076,1.01429 -0.34478,0.55786 -2.39634,1.91701 -4.55902,3.02032 -3.7074,1.89138 -3.93215,2.26648 -3.93215,6.56264 0,3.7029 0.54765,5.10424 2.92308,7.47967 1.60769,1.6077 3.65581,2.92308 4.55138,2.92308 1.32771,0 1.58851,-0.98392 1.41269,-5.32975 z M 311,436.60699 c 0,-0.76616 -0.675,-1.65203 -1.5,-1.96862 -0.85999,-0.33001 -1.5,-0.0201 -1.5,0.72635 0,0.71607 0.3,1.60195 0.66667,1.96861 C 309.03333,437.7 309.70833,438 310.16667,438 310.625,438 311,437.37314 311,436.60699 Z m 4.8341,-1.4782 c 0.21159,-1.48884 -0.0614,-2.10633 -0.74463,-1.68409 -0.59329,0.36668 -1.56847,1.58181 -2.16707,2.7003 -0.92466,1.72775 -0.81267,1.98104 0.74462,1.68409 1.02516,-0.19548 1.98022,-1.38554 2.16708,-2.7003 z M 312.5,433 c -0.33992,-0.55 -1.06803,-1 -1.61803,-1 -0.55,0 -0.72189,0.45 -0.38197,1 0.33992,0.55 1.06803,1 1.61803,1 0.55,0 0.72189,-0.45 0.38197,-1 z m -38.99292,12.01145 c -0.35053,-0.56716 0.0515,-0.73432 0.94322,-0.39215 0.85479,0.32802 2.66518,0.31755 4.02307,-0.0233 1.3579,-0.34081 2.96957,-1.55517 3.58151,-2.69858 0.82886,-1.54874 0.80107,-2.831 -0.10896,-5.02801 -0.67185,-1.62201 -2.15966,-3.60618 -3.30624,-4.40928 C 277.4931,431.65708 274.4717,431 271.92546,431 c -3.58094,0 -7.14289,1.23351 -15.72606,5.44599 -6.1031,2.99529 -13.45136,6.14529 -16.32947,7 -2.87811,0.8547 -6.83876,1.54413 -8.80143,1.53205 -1.96268,-0.0121 -5.45116,-0.87672 -7.75218,-1.92142 -2.38377,-1.08226 -4.8126,-3.11638 -5.64551,-4.72804 -0.80401,-1.55572 -1.59706,-3.72858 -1.76234,-4.82858 -0.16528,-1.1 0.028,-3.66037 0.42951,-5.68972 0.4521,-2.285 1.88843,-4.66445 3.77275,-6.25 2.14731,-1.80684 4.21187,-2.56028 7.01566,-2.56028 2.18511,0 5.3424,0.70818 7.0162,1.57374 1.6738,0.86555 2.84555,1.77146 2.60388,2.01312 -0.24166,0.24167 -2.17435,-0.28552 -4.29485,-1.17152 -3.16902,-1.3241 -4.54022,-1.40576 -7.70137,-0.45866 -2.53903,0.76071 -4.50799,2.23813 -5.79434,4.34779 -1.07164,1.75754 -1.95012,4.59734 -1.95217,6.31067 -0.002,1.71333 0.93599,4.30982 2.08456,5.76998 1.14856,1.46016 3.37621,3.32085 4.95034,4.13486 1.57412,0.81401 5.12411,1.48002 7.88887,1.48002 2.89146,0 7.69149,-1.01772 11.29966,-2.39579 3.45006,-1.31768 9.95534,-4.28148 14.45619,-6.58622 4.50085,-2.30473 10.00486,-4.43474 12.23113,-4.73335 2.28181,-0.30605 5.37962,0.009 7.10053,0.72158 1.67902,0.69548 3.93752,2.38927 5.01887,3.764 1.08136,1.37472 1.96611,3.78881 1.96611,5.36464 0,1.57583 -0.9,3.76514 -2,4.86514 -1.1,1.1 -3.32344,2 -4.94098,2 -1.61754,0 -3.21592,-0.44485 -3.55194,-0.98855 z M 256.7543,429.75 c -0.25283,-0.6875 -0.26347,-1.8125 -0.0237,-2.5 0.23982,-0.6875 1.29853,-1.25 2.35269,-1.25 1.37778,0 1.91667,0.7029 1.91667,2.5 0,1.78624 -0.54047,2.5 -1.89301,2.5 -1.04116,0 -2.09987,-0.5625 -2.35269,-1.25 z M 339,444 c -1.1,-1.1 -2,-3.28931 -2,-4.86514 0,-1.57583 0.90704,-4.01825 2.01564,-5.42761 1.1086,-1.40936 3.62388,-3.09324 5.58952,-3.74195 1.96563,-0.64872 4.99609,-0.89602 6.73436,-0.54956 1.73826,0.34646 8.93847,3.366 16.00046,6.71008 9.50525,4.50105 14.33704,6.2159 18.60421,6.60284 3.28998,0.29832 7.32243,0.008 9.39438,-0.67538 1.99659,-0.65894 4.53719,-2.35117 5.64579,-3.76053 1.24123,-1.57796 2.01564,-4.06654 2.01564,-6.47727 0,-2.15314 -0.67801,-5.22592 -1.50668,-6.82839 -1.03446,-2.00043 -2.69719,-3.23417 -5.30515,-3.93642 -2.45361,-0.66069 -4.96393,-0.68857 -7.09024,-0.0788 -1.81047,0.51924 -4.03565,1.46912 -4.94485,2.11086 -0.90919,0.64173 -0.39049,-0.0144 1.15268,-1.45799 2.10788,-1.97191 3.84901,-2.62385 7,-2.62104 2.39125,0.002 5.56791,0.84132 7.38977,1.95217 2.13878,1.3041 3.58703,3.25514 4.37939,5.89981 0.65112,2.17324 0.88669,5.53539 0.52348,7.47143 -0.41663,2.22087 -1.92515,4.63056 -4.08719,6.52886 -2.26094,1.98514 -5.02417,3.24833 -8.12187,3.71285 -2.71416,0.40702 -6.81435,0.21488 -9.71819,-0.45541 -2.76272,-0.63771 -10.70071,-3.84912 -17.63996,-7.13646 C 356.55135,432.95982 351.17724,431 348.64144,431 c -2.07511,0 -4.63868,0.46334 -5.69683,1.02964 -1.05815,0.56631 -2.60357,2.34396 -3.43426,3.95034 -0.83069,1.60639 -1.51035,3.37552 -1.51035,3.9314 0,0.55589 1.0125,1.95913 2.25,3.11831 1.65964,1.55461 3.03714,1.95877 5.25,1.54036 2.17433,-0.41113 2.58716,-0.29663 1.5,0.41603 -0.825,0.54081 -2.5125,0.99019 -3.75,0.99861 C 342.0125,445.99311 340.1,445.1 339,444 Z m -112.7412,-4.70458 c -1.23267,-0.23772 -2.92017,-1.40157 -3.75,-2.58632 -0.82984,-1.18476 -1.5088,-3.84361 -1.5088,-5.90855 0,-2.79752 0.57347,-4.12374 2.25,-5.20335 1.2375,-0.7969 3.93879,-1.39306 6.00286,-1.32479 2.67089,0.0883 4.5015,0.90554 6.34953,2.83446 2.10385,2.19595 2.46837,3.29446 1.92068,5.78808 -0.37375,1.70171 -1.94032,3.97804 -3.5039,5.0914 -1.55535,1.10751 -3.43344,1.95237 -4.17354,1.87747 -0.7401,-0.0749 -2.35417,-0.33068 -3.58683,-0.5684 z M 234.82044,435.5 c -0.17624,-0.55 -0.77044,-0.81158 -1.32044,-0.58128 -0.55,0.2303 -2.0125,0.3904 -3.25,0.35579 -1.2375,-0.0346 -2.25,0.48946 -2.25,1.16461 0,0.67515 0.27918,1.50673 0.6204,1.84795 0.34123,0.34122 1.94792,0.0787 3.57044,-0.58333 1.62252,-0.66206 2.80583,-1.65374 2.6296,-2.20374 z M 227,435.96778 c 0,-1.18862 -0.93401,-2.38558 -2.25,-2.88344 -1.2375,-0.46817 -2.42346,-0.69272 -2.63546,-0.49899 -0.212,0.19373 0.36087,1.49128 1.27305,2.88344 0.91219,1.39217 2.09814,2.53121 2.63546,2.53121 0.53732,0 0.97695,-0.9145 0.97695,-2.03222 z m 6,-3.84534 c 0,-1.03265 -0.68587,-2.44678 -1.52417,-3.1425 -0.83829,-0.69572 -1.80269,-0.98641 -2.14312,-0.64598 -0.34043,0.34043 0.12044,0.9027 1.02416,1.24949 0.90372,0.34679 1.64313,1.28394 1.64313,2.08256 0,0.79861 -0.45,1.17391 -1,0.83399 -0.55,-0.33992 -1,-0.14148 -1,0.44098 0,0.58246 0.675,1.05902 1.5,1.05902 0.825,0 1.5,-0.8449 1.5,-1.87756 z m -5.4116,-2.86738 c -0.32362,-0.32361 -0.82399,-0.3528 -1.11194,-0.0649 -0.28794,0.28794 -0.18874,1.37544 0.22046,2.41666 0.7082,1.80207 0.76169,1.80519 1.11193,0.0649 0.20237,-1.00555 0.10317,-2.09305 -0.22045,-2.41667 z m 9.12179,2.11438 c 0.18435,-0.55306 -0.74351,-2.26091 -2.06191,-3.79523 -1.54107,-1.79345 -2.64326,-2.39135 -3.08644,-1.67427 -0.37915,0.61347 0.0143,1.81909 0.8744,2.67916 0.86007,0.86007 1.56376,2.24411 1.56376,3.07566 0,0.83155 0.53437,1.33378 1.1875,1.11607 0.65312,-0.2177 1.33833,-0.84833 1.52269,-1.40139 z M 227.01053,428 c 1.02929,0 2.12041,-0.40285 2.42471,-0.89522 0.3043,-0.49236 -0.18255,-1.17757 -1.08189,-1.52268 -0.89934,-0.34511 -2.69675,0.0681 -3.99425,0.91827 -1.29751,0.85015 -2.3591,1.89536 -2.3591,2.32268 0,0.42732 0.5625,1.34516 1.25,2.03964 1.00445,1.01465 1.31277,0.8575 1.56955,-0.8 C 225.01087,428.82774 225.89009,428 227.01053,428 Z m 162.17754,11.28615 c -1.27156,-0.24282 -3.1072,-1.7492 -4.0792,-3.34752 -1.08141,-1.77825 -1.59223,-4.09866 -1.31624,-5.97911 0.24807,-1.69019 1.43414,-3.71723 2.63572,-4.50453 1.30799,-0.85703 3.85984,-1.28943 6.35911,-1.07754 2.88882,0.24492 4.786,1.08822 6.16022,2.73823 1.09218,1.31138 2.00075,3.14526 2.01905,4.0753 0.0183,0.93004 -0.41673,1.9691 -0.96673,2.30902 -0.55,0.33992 -1,1.44746 -1,2.46119 0,1.1683 -1.15307,2.24512 -3.14922,2.94098 -1.73208,0.60381 -3.41958,1.03655 -3.75,0.96165 -0.33043,-0.0749 -1.64115,-0.33485 -2.91271,-0.57767 z M 398,435.15832 c 0,-1.1133 -0.29999,-1.15424 -1.45201,-0.19815 -0.79861,0.66279 -2.37361,0.91256 -3.5,0.55506 -1.39862,-0.4439 -2.04799,-0.20587 -2.04799,0.75072 0,0.77039 0.25107,1.65179 0.55793,1.95865 0.30687,0.30687 1.88187,0.0582 3.5,-0.55257 C 396.67607,437.06125 398,435.93008 398,435.15832 Z m -8,1.42347 c 0,-0.78002 0.26745,-2.24252 0.59433,-3.25 0.44828,-1.38164 0.35467,-1.49602 -0.38091,-0.46546 -0.73801,1.03395 -1.42994,1.10217 -2.84434,0.28041 -1.02799,-0.59726 -1.30658,-1.09961 -0.61908,-1.11633 C 387.4375,432.01368 388,431.1 388,430 c 0,-1.31306 0.66667,-2 1.94098,-2 1.06754,0 2.19908,-0.4176 2.51452,-0.928 0.31545,-0.51041 -0.36524,-1.22597 -1.51264,-1.59014 -1.3204,-0.41907 -2.7614,-0.0511 -3.9256,1.00252 -1.23944,1.12168 -1.75134,2.77465 -1.5694,5.0677 0.14851,1.87168 0.83859,4.08815 1.53352,4.92549 C 387.67631,437.3149 388.63979,438 389.12244,438 389.6051,438 390,437.3618 390,436.58179 Z M 396,432.2 c 0,-0.99 -0.54,-2.34 -1.2,-3 -0.91182,-0.91182 -0.9164,-1.2 -0.019,-1.2 0.64952,0 1.46822,1.1446 1.81934,2.54355 0.35111,1.39896 1.11906,2.38333 1.70655,2.1875 0.58749,-0.19583 1.20991,-0.78131 1.38317,-1.30107 0.17325,-0.51976 -0.92025,-2.27717 -2.43,-3.90537 -2.27163,-2.44985 -2.80202,-2.66423 -3.07569,-1.24316 -0.18189,0.94445 -1.42277,1.99128 -2.75751,2.32628 -1.33475,0.335 -2.42681,1.0103 -2.42681,1.50068 0,0.49037 0.42344,0.89159 0.94098,0.89159 0.51754,0 1.20695,-0.43035 1.53203,-0.95633 0.32507,-0.52598 1.25163,-0.70283 2.05902,-0.39301 0.80738,0.30983 1.46797,1.15267 1.46797,1.873 0,0.72032 -0.5625,1.53665 -1.25,1.81406 -0.74674,0.30132 -0.54544,0.53617 0.5,0.58333 1.04776,0.0473 1.75,-0.64336 1.75,-1.72105 z m -35.63581,-2.69331 c -0.34636,-0.90262 -0.15025,-2.12063 0.43581,-2.70669 0.58606,-0.58606 1.80407,-0.78217 2.70669,-0.43581 0.90262,0.34637 1.4902,1.41345 1.30573,2.3713 -0.18446,0.95785 -1.11908,1.89247 -2.07693,2.07693 -0.95785,0.18447 -2.02493,-0.40311 -2.3713,-1.30573 z M 265,426 c 0,-1.11111 0.66667,-2 1.5,-2 0.83333,0 1.5,0.88889 1.5,2 0,1.11111 -0.66667,2 -1.5,2 -0.83333,0 -1.5,-0.88889 -1.5,-2 z m 88.19037,0.25 c 0.18536,-0.9625 0.99969,-1.75 1.80963,-1.75 0.80994,0 1.62427,0.7875 1.80963,1.75 0.23646,1.22785 -0.30348,1.75 -1.80963,1.75 -1.50615,0 -2.04609,-0.52215 -1.80963,-1.75 z M 271.5,426 c 0.33992,-0.55 1.04148,-1 1.55902,-1 0.51754,0 0.94098,0.45 0.94098,1 0,0.55 -0.70156,1 -1.55902,1 -0.85746,0 -1.2809,-0.45 -0.94098,-1 z m 75.5,0 c 0,-0.55 0.675,-1 1.5,-1 0.825,0 1.5,0.45 1.5,1 0,0.55 -0.675,1 -1.5,1 -0.825,0 -1.5,-0.45 -1.5,-1 z m -54,-11.5 c 0,-1.98234 0.43925,-2.56206 1.75,-2.30963 0.9625,0.18536 1.75,1.22469 1.75,2.30963 0,1.08494 -0.7875,2.12427 -1.75,2.30963 C 293.43925,417.06206 293,416.48234 293,414.5 Z m 32.38,1.04789 c -0.30647,-0.79867 -0.26579,-1.92367 0.0904,-2.5 C 325.8266,412.47155 326.73992,412 327.5,412 c 0.76008,0 1.63498,0.40939 1.94423,0.90976 0.30924,0.50036 0.28765,1.62536 -0.048,2.5 C 329.0606,416.28439 328.14501,417 327.3616,417 c -0.78342,0 -1.67515,-0.65345 -1.98163,-1.45211 z m -6.74052,-3.24174 C 318.28777,411.95443 318,411.06667 318,410.33333 318,409.6 318.675,409 319.5,409 c 0.825,0 1.5,0.64844 1.5,1.44098 0,0.79254 -0.38723,1.68031 -0.86052,1.97282 -0.47329,0.2925 -1.14829,0.24406 -1.5,-0.10765 z M 301,410.5 c 0,-1.02996 0.6554,-1.52043 1.75,-1.30963 0.9625,0.18536 1.66127,0.78086 1.55282,1.32333 -0.10845,0.54246 -0.89595,1.1318 -1.75,1.30962 C 301.64684,412.01197 301,411.46073 301,410.5 Z m 9,-4 c 0,-0.825 0.45,-1.5 1,-1.5 0.55,0 1,0.675 1,1.5 0,0.825 -0.45,1.5 -1,1.5 -0.55,0 -1,-0.675 -1,-1.5 z" />
  </g>
</svg>
