<?xml version="1.0" encoding="UTF-8" standalone="no"?>
<!-- Created with Inkscape (http://www.inkscape.org/) -->

<svg
   version="1.1"
   id="svg1"
   width="95.680298"
   height="81.893906"
   viewBox="0 0 95.680298 81.893906"
   xmlns="http://www.w3.org/2000/svg"
   xmlns:svg="http://www.w3.org/2000/svg">
  <defs
     id="defs1" />
  <g
     id="layer16"
     style="display:inline"
     transform="translate(-521.3197,-32)">
    <path
       style="display:inline;fill:#000000"
       d="m 528.5,112.43506 c 5.5,-0.74737 13.7125,-2.51554 18.25,-3.92927 4.5375,-1.41372 8.25,-2.79879 8.25,-3.07793 0,-0.27915 -0.9,-2.27168 -2,-4.42786 -1.1,-2.156178 -1.98569,-4.275751 -1.9682,-4.710162 0.0175,-0.434411 0.75303,0.110162 1.63454,1.210162 0.93469,1.166374 1.40192,1.374781 1.12097,0.5 -0.26496,-0.825 -1.78442,-8.588695 -3.37656,-17.252655 -1.64519,-8.952562 -3.32994,-15.609328 -3.90278,-15.420631 -0.55439,0.182613 -1.1402,3.041782 -1.30182,6.353708 -0.23036,4.720644 0.36237,7.819777 2.74338,14.343911 1.67049,4.577226 2.82653,8.532943 2.56899,8.790483 -0.25754,0.25754 -1.41326,-1.732937 -2.56827,-4.423281 -1.15501,-2.690344 -2.74132,-7.348579 -3.52513,-10.351634 C 543.6413,77.036847 543,72.974475 543,71.012407 c 0,-1.962067 0.70052,-4.567522 1.5567,-5.789901 C 545.41289,64.000128 547.01747,63 548.12245,63 c 1.10497,0 2.83212,0.440501 3.83811,0.978891 1.00599,0.53839 2.33259,2.423275 2.94799,4.188633 0.61541,1.765358 1.40841,10.549857 1.76223,19.521109 C 557.0246,96.659885 557.52614,104 557.78531,104 c 0.25918,0 2.83579,-1.35286 5.72579,-3.00635 2.89,-1.653493 5.80183,-3.665786 6.47074,-4.471764 0.97761,-1.177949 0.76394,-2.206576 -1.0892,-5.24365 C 566.93726,88.07363 566.87475,87.727737 568.48086,89 c 1.74683,1.383739 1.83241,1.344985 1.10409,-0.5 -0.43423,-1.1 -1.16469,-3.125 -1.62324,-4.5 -0.45854,-1.375 -2.0065,-6.452323 -3.43991,-11.282941 -1.63521,-5.51073 -3.00561,-8.536084 -3.67827,-8.120354 -0.62028,0.383351 -0.85347,2.292546 -0.55333,4.530244 0.28532,2.127212 1.91955,6.861069 3.63162,10.519682 1.71207,3.658613 2.89247,6.872408 2.62312,7.141766 -0.26936,0.269359 -2.07717,-2.822643 -4.01734,-6.871115 C 560.23752,75.138701 559,71.098531 559,68.400656 c 0,-2.457934 0.60752,-4.659961 1.48701,-5.389879 0.86994,-0.721983 2.5572,-0.965514 4.0659,-0.586853 1.67121,0.419446 3.07561,1.83609 3.99018,4.024952 0.77621,1.857732 2.17822,8.842187 3.11559,15.521012 l 1.70431,12.143317 4.89241,-4.892416 4.89242,-4.892416 -5.6006,-7.414187 c -3.08033,-4.077802 -6.19497,-9.427982 -6.92142,-11.889288 -0.72646,-2.461307 -1.11586,-5.258903 -0.86534,-6.216881 0.25051,-0.957978 1.2899,-2.006612 2.30974,-2.330297 1.01984,-0.323685 2.71831,-0.12609 3.77438,0.439101 1.05607,0.56519 2.25375,1.82762 2.66153,2.805399 0.40777,0.977779 1.95145,6.502698 3.43041,12.277599 l 2.689,10.499818 3.18724,-4.399857 C 589.56574,75.679859 591,73.14754 591,72.472406 c 0,-0.675134 -0.68094,-1.792647 -1.5132,-2.483363 -0.83226,-0.690716 -1.41,-1.758316 -1.28387,-2.372445 0.12614,-0.614129 -1.07302,-4.402042 -2.66479,-8.417585 -1.59176,-4.015543 -3.26403,-7.529601 -3.71613,-7.809017 C 581.3699,51.110579 581,51.520109 581,52.300062 c 0,0.779952 1.3443,4.06901 2.98733,7.309017 1.64304,3.240006 2.98449,6.340921 2.981,6.890921 -0.003,0.55 -1.4151,-1.244328 -3.13693,-3.987395 -1.72182,-2.743067 -3.33917,-6.837892 -3.5941,-9.09961 -0.36242,-3.215402 -0.0959,-4.253274 1.22204,-4.759019 0.92705,-0.355742 2.53589,-0.191715 3.57519,0.364506 1.16151,0.621618 2.64248,3.606567 3.84336,7.746413 1.07453,3.704308 2.27243,8.289014 2.66198,10.188235 l 0.70827,3.45313 2.11277,-3.95313 c 1.73902,-3.253822 2.20848,-6.316671 2.65379,-17.314043 0.50453,-12.459795 0.69836,-13.488322 2.87394,-15.25 C 601.17175,32.850089 602.58957,32 603.03936,32 c 0.44978,0 1.57484,0.757061 2.50014,1.682358 1.28341,1.283404 1.54106,2.713252 1.08651,6.02957 -0.32772,2.390967 -1.55544,6.577831 -2.72827,9.304142 -1.2308,2.86108 -2.57747,4.681871 -3.18501,4.306384 -0.65934,-0.407489 -0.80755,-0.01193 -0.3967,1.058734 0.37999,0.990224 -0.42461,3.898802 -1.91261,6.914045 -1.4127,2.862622 -2.9852,5.992267 -3.49445,6.954767 -0.50926,0.9625 -0.77592,1.75 -0.5926,1.75 0.18333,0 3.64096,-1.125 7.68363,-2.5 4.04267,-1.375 8.35968,-2.5 9.59336,-2.5 1.23369,0 2.95487,0.273145 3.82485,0.606989 0.86999,0.333844 1.58179,1.44847 1.58179,2.476947 0,1.028477 -1.05153,2.558944 -2.33672,3.401039 -1.72689,1.131498 -4.87758,1.50441 -12.0725,1.428886 -5.35468,-0.05621 -9.83437,0.05268 -9.95487,0.241972 -0.12051,0.189292 -1.44427,2.256667 -2.94169,4.594167 -1.49743,2.3375 -2.57563,4.25 -2.396,4.25 0.17963,0 4.32043,-1.35 9.20178,-3 4.88135,-1.65 10.10396,-3 11.6058,-3 1.50184,0 3.44243,0.273145 4.31241,0.606989 0.86999,0.333844 1.58179,1.67347 1.58179,2.976947 0,1.415536 -0.99276,3.020436 -2.46514,3.985183 -1.5258,0.999741 -5.6221,1.821835 -10.75,2.157436 -4.55667,0.298216 -7.93807,0.172452 -7.51422,-0.279477 0.42385,-0.451929 3.01122,-0.912296 5.74971,-1.023038 2.73848,-0.110742 6.50898,-0.488362 8.37887,-0.839157 1.8699,-0.350794 3.95013,-1.3009 4.62274,-2.111345 0.67261,-0.810446 1.05533,-1.472176 0.85048,-1.470512 -0.20484,0.0017 -5.09744,0.91862 -10.87244,2.037679 -5.775,1.11906 -10.64414,2.45012 -10.82031,2.957912 -0.17617,0.507792 -1.64356,0.658609 -3.26086,0.335148 -2.55056,-0.510112 -3.51383,0.02749 -7.26309,4.053574 -2.3774,2.552926 -3.61001,4.423023 -2.73914,4.155772 0.87087,-0.267251 5.4084,-1.395628 10.0834,-2.507505 4.675,-1.111877 10.38036,-2.024747 12.67857,-2.0286 2.47354,-0.0041 4.81978,0.634205 5.75,1.564423 0.86429,0.864285 1.57143,2.214285 1.57143,3 C 608,94.357143 607.1,95.9 606,97 c -1.32241,1.322412 -3.43987,2.035899 -6.25,2.105963 -2.3375,0.05828 -5.6,0.05015 -7.25,-0.01806 -1.65,-0.06821 -6.69913,-0.636365 -11.22028,-1.262556 -8.04299,-1.113974 -8.30181,-1.083777 -12,1.400085 -2.07885,1.396238 -4.67972,3.070998 -5.77972,3.721698 -1.68459,0.99651 -1.29033,1.10366 2.5,0.67948 2.475,-0.27699 9.34143,-1.06276 15.25873,-1.74616 9.59197,-1.10779 11.13451,-1.06335 14.22375,0.4098 2.19329,1.04591 3.70632,2.61382 4.12251,4.27203 0.47691,1.90016 0.11243,3.16474 -1.327,4.60417 -1.09147,1.09147 -3.83107,2.23217 -6.088,2.53489 -2.25693,0.30272 -8.39701,-0.22266 -13.64462,-1.16752 -5.24761,-0.94485 -9.79363,-2.12649 -10.10226,-2.62587 -0.30863,-0.49937 -0.19709,-0.90092 0.24787,-0.89233 0.44496,0.009 3.50902,0.66756 6.80902,1.46438 3.3,0.79682 8.95149,1.46479 12.55887,1.48438 4.13466,0.0224 7.27575,-0.48857 8.49843,-1.38262 1.06675,-0.78003 1.71526,-1.61864 1.44113,-1.86358 -0.27414,-0.24494 -8.37343,-0.71451 -17.99843,-1.04351 -11.87669,-0.40596 -16.73035,-0.28222 -15.10482,0.38506 1.31735,0.54078 2.18117,1.19726 1.91959,1.45884 -0.26158,0.26158 -2.62858,-0.25799 -5.25999,-1.1546 -4.66562,-1.58974 -4.97389,-1.56536 -12.41958,0.98232 -4.19936,1.43689 -10.5602,3.0684 -14.1352,3.62557 -3.575,0.55717 -8.75,0.97006 -11.5,0.91754 -3.89031,-0.0743 -2.78061,-0.39707 5,-1.45434 z M 596.5,105 c -1.35274,-1.49476 -3.07997,-2 -6.83726,-2 -2.76501,0 -9.10777,0.5625 -14.09502,1.25 L 566.5,105.5 578,106.05053 c 6.325,0.3028 13.48224,0.6403 15.90499,0.75 4.34552,0.19678 4.38055,0.17247 2.59501,-1.80053 z m 6.95295,-8.160515 C 604.85383,96.201202 606,95.249351 606,94.724262 c 0,-0.558818 -2.17703,-0.713801 -5.25,-0.37375 -2.8875,0.319527 -8.85,0.920951 -13.25,1.336498 -7.57604,0.7155 -7.76152,0.788849 -3.5,1.384071 2.475,0.345693 7.29133,0.696119 10.70295,0.778725 3.41162,0.08261 7.34912,-0.372038 8.75,-1.010321 z M 554.49757,74.275921 c -0.34925,-2.873243 -1.46535,-6.248243 -2.48021,-7.5 C 551.0025,65.524165 549.94706,64.725 549.67195,65 c -0.27512,0.275 0.69865,6.95284 2.16392,14.839645 L 554.5,94.17929 l 0.31629,-7.339645 c 0.17396,-4.036805 0.0305,-9.69048 -0.31872,-12.563724 z m 51.38166,18.142802 c 0.20857,-0.189113 -0.69143,-0.82385 -2,-1.410527 -1.81064,-0.811766 -4.53007,-0.591921 -11.37923,0.919922 l -9,1.986607 11,-0.57608 c 6.05,-0.316843 11.17065,-0.730808 11.37923,-0.919922 z M 569.41778,77.5 c -0.7659,-4.4 -1.90282,-9.2375 -2.52649,-10.75 C 566.26763,65.2375 565.36195,64 564.87868,64 564.39541,64 564,64.501456 564,65.114348 c 0,0.612891 1.41377,5.574119 3.14171,11.024952 1.72795,5.450832 3.26027,9.786876 3.40517,9.635652 C 570.69178,85.623728 570.18368,81.9 569.41778,77.5 Z m 36.50031,2.352587 c 5.21534,-0.909182 6.16666,-1.332386 4.58191,-2.038312 -1.3586,-0.605187 -3.9242,-0.269233 -8,1.047561 -3.3,1.066153 -5.36186,1.983393 -4.58191,2.038312 0.77994,0.05492 4.37994,-0.416484 8,-1.047561 z M 576.66037,69 c -2.23881,-5.5 -4.42827,-10 -4.86547,-10 -0.43719,0 -0.78502,0.7875 -0.77294,1.75 0.0121,0.9625 0.85019,3.573393 1.86246,5.801985 1.01227,2.228592 3.03303,5.941092 4.49058,8.25 C 578.83255,77.110893 580.1839,79 580.37801,79 c 0.19411,0 -1.47883,-4.5 -3.71764,-10 z m 2.35093,-2.227996 c -1.10971,-3.592811 -2.69122,-7.091399 -3.51447,-7.774639 C 574.67357,58.314125 574,58.050941 574,58.412512 c 0,0.361571 1.43865,4.003025 3.19699,8.092119 1.75835,4.089094 3.33986,7.291851 3.51448,7.117237 0.17461,-0.174615 -0.59047,-3.257053 -1.70017,-6.849864 z m 35.28095,3.335744 c 0.81033,-0.810331 0.5842,-1.096033 -0.84225,-1.064113 -1.0725,0.024 -4.65,0.688638 -7.95,1.476975 l -6,1.43334 6.84225,-0.369228 c 3.76324,-0.203075 7.34074,-0.867713 7.95,-1.476974 z M 612.75,67.670831 c 0.6875,-0.0023 1.25,-0.379164 1.25,-0.837498 0,-0.458333 -0.7875,-0.799098 -1.75,-0.757255 -0.9625,0.04184 -3.325,0.703486 -5.25,1.470319 l -3.5,1.394241 4,-0.632821 c 2.2,-0.348052 4.5625,-0.634695 5.25,-0.636986 z M 587.04851,55.646994 c -0.63295,-1.917855 -1.77903,-4.008381 -2.54684,-4.645612 -0.9197,-0.763276 -0.66714,0.566642 0.74017,3.897652 1.17491,2.780939 2.32099,4.871465 2.54685,4.645612 0.22585,-0.225853 -0.10723,-1.979797 -0.74018,-3.897652 z M 600.83551,42.75 c 0.97682,-4.8125 1.42928,-8.75 1.00545,-8.75 -0.42382,0 -1.17885,0.7875 -1.67782,1.75 -0.49898,0.9625 -1.15808,5.575 -1.46466,10.25 -0.30658,4.675 -0.35078,7.825 -0.0982,7 0.25256,-0.825 1.25842,-5.4375 2.23525,-10.25 z m 3.94601,-3.146339 c 0.32317,-3.15798 0.14266,-4.674837 -0.50842,-4.272445 -0.55522,0.343142 -1.31896,2.996494 -1.6972,5.896339 C 602.19765,44.1274 601.68596,47.625 601.4388,49 c -0.34024,1.892849 -0.0497,1.649989 1.19614,-1 0.90504,-1.925 1.871,-5.703353 2.14658,-8.396339 z"
       id="path1528" />
  </g>
</svg>
