<?xml version="1.0" encoding="UTF-8" standalone="no"?>
<!-- Created with Inkscape (http://www.inkscape.org/) -->

<svg
   version="1.1"
   id="svg1"
   width="135.5"
   height="112.89634"
   viewBox="0 0 135.5 112.89634"
   xmlns="http://www.w3.org/2000/svg"
   xmlns:svg="http://www.w3.org/2000/svg">
  <defs
     id="defs1" />
  <g
     id="layer14"
     transform="translate(-242,-10)">
    <path
       id="path1526"
       style="display:inline;fill:#000000"
       d="m 332.19522,121.93323 c -2.36763,-0.4662 -6.41763,-1.8794 -9,-3.14044 -2.58237,-1.26103 -6.79173,-4.36787 -9.35413,-6.90409 -2.56241,-2.53621 -5.59991,-6.45578 -6.75,-8.71016 -1.1501,-2.25437 -2.08683,-4.454291 -2.08163,-4.888702 0.005,-0.434411 1.19245,1.235162 2.63834,3.710162 1.44588,2.475 4.25412,6.22445 6.24054,8.33211 1.98641,2.10766 5.47502,4.93413 7.75247,6.28103 2.27744,1.34691 7.38266,3.12487 11.34493,3.95103 5.58433,1.16436 8.46092,1.26976 12.79384,0.46878 3.07435,-0.56833 7.64414,-2.02347 10.15508,-3.23365 2.51094,-1.21019 6.94897,-4.57688 9.86229,-7.48155 3.04642,-3.03737 6.41294,-7.732 7.92358,-11.049483 C 375.81497,94.668731 376.34509,91.980396 376.3369,86 376.3299,80.552945 375.68996,76.859662 374.00069,72.507372 372.37401,68.316354 369.99275,64.832754 366.08,60.92 362.18743,57.027427 358.66203,54.612281 354.49263,52.981831 349.85031,51.166447 346.58471,50.643796 340,50.66232 c -6.95102,0.01955 -9.50228,0.485771 -14,2.55835 -3.025,1.393941 -7.36793,4.161458 -9.65097,6.150038 -2.28303,1.98858 -5.31565,5.602981 -6.73915,8.032003 -1.4235,2.429022 -3.26806,7.026647 -4.09903,10.216945 C 304.67988,80.809954 304,84.529094 304,85.884413 v 2.464215 L 306.5,86 c 1.45419,-1.366141 2.5,-3.463865 2.5,-5.014592 0,-1.46628 1.38075,-5.429098 3.06834,-8.806262 1.68759,-3.377164 4.88494,-7.695232 7.10521,-9.595706 2.22028,-1.900475 5.57452,-4.185071 7.45387,-5.07688 1.87935,-0.89181 5.8329,-2.128214 8.78568,-2.747564 4.08416,-0.856662 6.67792,-0.833097 10.8407,0.09849 3.00961,0.673522 7.89621,2.671798 10.85911,4.440615 3.56357,2.127409 6.64214,5.075378 9.09478,8.708963 2.11653,3.135628 4.2006,7.819052 4.85625,10.913197 0.64458,3.041905 0.85364,7.649202 0.47645,10.5 -0.36965,2.793855 -1.49176,6.934818 -2.49357,9.202141 -1.00181,2.267328 -3.48274,5.961228 -5.51318,8.208678 -2.03043,2.24745 -5.74439,5.23354 -8.25324,6.63577 -2.50885,1.40222 -6.97329,2.92769 -9.92097,3.38993 -2.98092,0.46746 -7.85826,0.44859 -10.98996,-0.0425 -3.09679,-0.48562 -7.58885,-2.03061 -9.98237,-3.4333 -2.39351,-1.40269 -5.55428,-3.97474 -7.02394,-5.71566 -1.46967,-1.74092 -3.87093,-5.69428 -5.33614,-8.785243 l -2.66402,-5.619929 -2.44136,1.778404 c -1.34274,0.978123 -5.23522,2.719591 -8.64995,3.86993 C 294.85696,100.05881 289.65557,101 286.71305,101 c -2.94253,0 -7.79422,-0.71472 -10.78155,-1.588257 -2.98732,-0.873541 -7.49133,-2.895613 -10.00891,-4.493492 -2.51757,-1.597879 -5.94316,-4.604738 -7.61242,-6.681909 -1.66926,-2.077171 -3.98019,-5.629356 -5.13539,-7.893744 -1.1552,-2.264388 -2.57461,-7.085665 -3.15423,-10.713949 -0.82393,-5.157586 -0.73913,-8.106302 0.38865,-13.515183 0.79338,-3.805067 2.65516,-8.874715 4.13728,-11.265884 1.48213,-2.39117 3.81219,-5.545944 5.17791,-7.010608 l 2.48314,-2.663027 -6.30385,-4.586973 c -3.46711,-2.522836 -6.55131,-4.572662 -6.85376,-4.555171 -0.30246,0.01749 -1.41707,0.687843 -2.47692,1.489668 -1.05985,0.801825 -1.73485,1.63439 -1.5,1.850144 0.23485,0.215755 3.577,1.998272 7.427,3.96115 3.85,1.962878 6.40963,3.591001 5.68807,3.618052 -0.72155,0.02705 -3.87155,-1.140066 -7,-2.593592 -3.12844,-1.453527 -6.47557,-3.323271 -7.43807,-4.154988 -1.06418,-0.919579 -1.75,-2.926851 -1.75,-5.121922 0,-3.360649 0.54715,-4.005431 7.92994,-9.345012 C 254.29141,12.580886 258.58876,10 259.4796,10 c 0.89085,0 2.89851,0.661291 4.46149,1.469535 2.70937,1.401072 2.8753,1.893242 3.56159,10.564298 0.57571,7.273948 1.00528,8.985222 2.14566,8.547619 0.7842,-0.300929 3.97428,-1.287998 7.08905,-2.193487 4.04402,-1.175627 7.74748,-1.488712 12.95295,-1.095023 4.63439,0.350498 9.24944,1.448503 12.66971,3.014355 2.95898,1.354668 7.28145,4.180902 9.60547,6.280518 2.32403,2.099617 5.5283,6.088792 7.12061,8.864835 1.5923,2.776042 2.8894,5.49735 2.88242,6.04735 -0.007,0.55 -1.34606,-1.286588 -2.97576,-4.081308 -1.6297,-2.794719 -4.5338,-6.698622 -6.45357,-8.675339 -1.91976,-1.976718 -6.52932,-5.09013 -10.24346,-6.918693 C 296.15857,28.803168 294.72014,28.5 286.52139,28.5 c -8.14427,0 -9.66567,0.315227 -15.64796,3.242172 -3.71159,1.815968 -8.271,5.062364 -10.36483,7.379989 -2.05605,2.2758 -4.92409,6.666822 -6.37343,9.757828 -2.26916,4.839424 -2.63454,6.939507 -2.63065,15.120011 0.004,8.323769 0.3438,10.192002 2.74481,15.089056 1.50715,3.073981 4.65512,7.500827 6.99548,9.837435 2.34035,2.336608 6.38916,5.339822 8.99734,6.67381 2.60818,1.333988 7.33318,2.768131 10.5,3.186986 3.16682,0.418855 8.07225,0.468076 10.90095,0.10938 2.82871,-0.358696 7.55371,-1.77586 10.5,-3.149254 2.9463,-1.373393 7.19706,-4.351887 9.44614,-6.618875 2.24908,-2.266988 5.24697,-6.260813 6.66199,-8.875167 1.41502,-2.614354 3.12361,-7.579619 3.79688,-11.033922 0.67327,-3.454303 1.04966,-6.45501 0.83643,-6.668239 -0.21322,-0.213228 -1.18466,0.195076 -2.15874,0.907343 -0.97409,0.712266 -2.45068,3.937974 -3.28133,7.168239 -0.83065,3.230264 -3.07494,8.162637 -4.98731,10.960828 -1.91238,2.798191 -5.4027,6.470519 -7.75627,8.160728 -2.35357,1.690209 -6.64695,3.847551 -9.54084,4.794093 -3.7667,1.232027 -6.80643,1.539423 -10.6989,1.081939 -2.99051,-0.351476 -7.80516,-1.706696 -10.69922,-3.0116 -2.89406,-1.304905 -7.1529,-4.339105 -9.46409,-6.742667 C 261.98666,83.466551 259.09676,79.25 257.87585,76.5 256.2245,72.780467 255.65602,69.5793 255.65602,64 c 0,-5.581847 0.56811,-8.778769 2.22134,-12.5 1.22174,-2.75 3.88663,-6.726379 5.92199,-8.836398 2.03536,-2.110019 5.95065,-5.032857 8.70065,-6.495195 4.40106,-2.340305 6.13798,-2.659041 14.5,-2.660838 7.98526,-0.0017 10.18426,0.362887 13.79149,2.286685 2.36032,1.258801 6.05087,4.048104 8.20122,6.198452 2.15034,2.150349 4.88709,6.181678 6.08165,8.958509 C 316.26892,53.728047 317.49294,56 317.7944,56 c 0.30147,0 1.25855,-0.622521 2.12686,-1.383379 0.86831,-0.760859 4.35644,-2.383465 7.7514,-3.605793 5.00102,-1.800572 7.7533,-2.150961 14.5,-1.845978 6.34243,0.286706 9.68007,1.005651 14.00249,3.016199 3.12133,1.451871 7.73386,4.537422 10.25006,6.85678 2.65275,2.445217 5.9404,6.990534 7.82486,10.818202 2.93859,5.968805 3.24993,7.465422 3.24993,15.622578 0,7.6954 -0.39392,9.861849 -2.68006,14.739461 -1.47403,3.14493 -4.72276,7.90188 -7.21941,10.571 -2.49665,2.66912 -6.91562,6.0517 -9.81994,7.51686 -2.90433,1.46515 -7.70451,3.1207 -10.66708,3.67899 -2.96257,0.55829 -6.56257,0.96578 -8,0.90551 -1.43743,-0.0603 -4.55066,-0.491 -6.91829,-0.9572 z m 18.07117,-7.50833 c 2.54247,-0.86631 6.67974,-3.38581 9.19394,-5.5989 2.51421,-2.21309 5.80167,-6.11679 7.30547,-8.6749 2.46145,-4.187121 2.73392,-5.59879 2.73144,-14.1511 -0.002,-7.932666 -0.37397,-10.195481 -2.25272,-13.715482 -1.23747,-2.318515 -4.14208,-6.03361 -6.45468,-8.255767 -2.3424,-2.250791 -6.6596,-4.963296 -9.74729,-6.124242 -4.13319,-1.554051 -7.19536,-1.989464 -12.04255,-1.712345 -3.74561,0.214141 -8.19501,1.205605 -10.5,2.339725 -3.98301,1.959754 -4.00268,1.998033 -4.63002,9.014578 -0.41555,4.647845 -1.53378,8.829975 -3.28504,12.285904 -1.46026,2.881691 -4.21425,6.965321 -6.11998,9.074734 C 312.55923,91.016518 311,93.265321 311,93.904445 c 0,0.639123 1.1037,3.34009 2.45267,6.002148 1.34896,2.662057 4.53237,6.670737 7.07422,8.908167 2.54186,2.23743 6.50066,4.7339 8.79734,5.5477 2.29667,0.81381 6.90811,1.51517 10.24763,1.55859 3.33952,0.0434 8.15206,-0.62985 10.69453,-1.49615 z M 298.03811,91.75 302.5,89.5 l 0.56738,-7 c 0.31206,-3.85 1.50946,-9.104052 2.66089,-11.67567 1.15143,-2.571619 3.98422,-6.726846 6.29508,-9.23384 3.18873,-3.459361 4.0635,-5.104458 3.62879,-6.82433 -0.31503,-1.246388 -1.91899,-4.385158 -3.56436,-6.975045 -1.64537,-2.589887 -4.88687,-6.081823 -7.20333,-7.759858 -2.31646,-1.678034 -6.46978,-3.721535 -9.2296,-4.541114 C 292.89503,34.670564 289.00035,34 287,34 c -2.00035,0 -6.08117,0.718325 -9.0685,1.596277 -2.98732,0.877953 -7.0065,2.747971 -8.9315,4.155596 -1.925,1.407625 -4.30281,3.5018 -5.28401,4.653722 -0.98121,1.151923 -2.69824,3.821866 -3.81563,5.933207 -1.15757,2.18727 -2.27375,6.727049 -2.59444,10.552216 -0.40094,4.782425 -0.0737,8.396048 1.1378,12.563371 1.36672,4.701351 2.81543,6.949058 7.37845,11.447784 3.35533,3.308051 7.51854,6.283539 10.17783,7.27419 2.475,0.922 7.44215,1.7095 11.03811,1.75 4.89866,0.05517 7.65694,-0.490555 11,-2.176363 z M 315.4748,71.5 c 0.61914,-2.997419 0.61802,-2.996989 -1.30056,0.5 -1.05612,1.925 -2.23135,4.625 -2.61161,6 -0.63622,2.300563 -0.53247,2.260675 1.30057,-0.5 1.09556,-1.65 2.27079,-4.35 2.6116,-6 z M 264.19203,33.671436 c 0.0231,-0.42821 -1.24813,-3.667362 -2.825,-7.198116 -1.57686,-3.530754 -3.1171,-6.43165 -3.42275,-6.446436 -0.30565,-0.01479 -1.98939,1.030843 -3.74165,2.32362 l -3.18593,2.350505 5.24165,4.380328 c 2.88291,2.409181 5.39915,4.748954 5.59165,5.199496 0.1925,0.450542 0.78875,0.672917 1.325,0.494167 0.53625,-0.17875 0.99392,-0.675354 1.01703,-1.103564 z M 267.11572,31.475 c -0.0188,-0.53625 -0.31446,-3.45 -0.65691,-6.475 -0.34245,-3.025 -0.84099,-6.287161 -1.10787,-7.249247 -0.40393,-1.456124 -0.85102,-1.559104 -2.66809,-0.614545 -1.20057,0.624086 -2.34504,1.273441 -2.54328,1.443012 -0.19824,0.169571 0.89014,3.495822 2.41863,7.39167 1.52848,3.895847 3.18692,6.947402 3.68543,6.781234 0.4985,-0.166168 0.89094,-0.740874 0.87209,-1.277124 z M 248,24.581448 c 0,-0.191502 -0.9,-0.583541 -2,-0.871197 -1.49285,-0.39039 -2,-0.03068 -2,1.418552 0,1.631687 0.3192,1.770732 2,0.871197 1.1,-0.588702 2,-1.227051 2,-1.418552 z m 1.81955,-4.341664 C 249.9953,19.007903 249.72755,18 249.22454,18 c -0.50301,0 -1.66029,0.824018 -2.57173,1.831152 -0.91145,1.007133 -1.34064,2.147689 -0.95376,2.534569 0.38688,0.38688 1.40037,0.570765 2.25219,0.408633 0.85182,-0.162132 1.69256,-1.302688 1.86831,-2.53457 z M 254.72713,20 l 2.54259,-2 h -3.13486 C 251.66667,18 251,18.425325 251,20 c 0,1.1 0.26652,2 0.59227,2 0.32575,0 1.73644,-0.9 3.13486,-2 z M 258,14.440983 c 0,-1.761729 -0.38945,-2.33634 -1.25,-1.8443 -0.6875,0.393095 -1.80755,1.14564 -2.48899,1.672324 -0.68144,0.526684 -0.99239,1.356619 -0.69098,1.8443 C 253.87143,16.600988 254.99148,17 256.05902,17 257.47467,17 258,16.307397 258,14.440983 Z m 6.48423,-1.466504 c -0.24919,-0.403186 -1.36008,-0.970255 -2.46865,-1.260153 C 260.41089,11.294689 260,11.673422 260,13.572181 c 0,2.172946 0.21944,2.28496 2.46864,1.260152 1.35776,-0.618634 2.26477,-1.454668 2.01559,-1.857854 z m 103.35336,36.40851 c 4.98485,-3.704298 5.98618,-4.890406 5.0653,-6 C 372.27161,42.622345 371.05845,42 370.20698,42 c -0.85147,0 -3.7419,2.3625 -6.42318,5.25 -2.68127,2.8875 -4.44382,4.35 -3.91678,3.25 0.52704,-1.1 2.50445,-3.780733 4.39425,-5.957184 l 3.43599,-3.957184 -3.45587,-1.852238 c -1.90074,-1.018731 -3.65244,-1.655681 -3.89267,-1.415445 -0.24024,0.240236 -1.28258,3.304476 -2.31633,6.809422 -1.03374,3.504946 -1.91392,5.607278 -1.95596,4.67185 -0.042,-0.935428 0.42925,-4.058695 1.04731,-6.940593 1.05346,-4.912117 0.98399,-5.352974 -1.11078,-7.049221 C 354.78397,33.814233 353.4527,33 353.05459,33 c -0.39812,0 -0.59257,3.7125 -0.43212,8.25 0.2379,6.727722 0.12576,7.511926 -0.60774,4.25 -0.49471,-2.2 -0.9254,-6.279637 -0.9571,-9.065859 -0.0551,-4.845182 0.10573,-5.155086 3.69237,-7.114158 l 3.75,-2.0483 9.25,4.423186 9.25,4.423185 v 4.940973 C 377,44.138557 376.56331,46 375.84087,46 c -0.63752,0 -3.54322,1.8 -6.45709,4 -2.91388,2.2 -5.85176,4 -6.52861,4 -0.67686,0 1.56523,-2.077655 4.98242,-4.617011 z m 7.82886,-11.049873 c -0.27234,-0.272336 -1.50922,0.04755 -2.74863,0.710864 l -2.25347,1.20602 2.41783,1.305023 c 2.17277,1.172759 2.45135,1.100713 2.74862,-0.710864 0.18194,-1.108738 0.10799,-2.238707 -0.16435,-2.511043 z m -6.32257,-2.035398 c 1.05443,2.551633 1.3268,2.672503 3.09656,1.374161 1.87193,-1.373293 1.83662,-1.476246 -1,-2.915839 -1.61724,-0.820756 -3.68566,-1.372652 -4.59648,-1.226437 -0.91082,0.146216 -2.44737,0.7087 -3.41455,1.249965 -1.57091,0.879123 -1.44757,1.14812 1.15603,2.521321 2.85926,1.508039 2.92108,1.486565 3.25844,-1.131843 L 368.18777,33.5 Z M 358.44316,31.75 c -0.38039,-1.2375 -0.79631,-2.373092 -0.92426,-2.523539 -0.12795,-0.150446 -0.97205,0.0102 -1.87577,0.356989 C 354.73941,29.93024 354,30.547066 354,30.954174 c 0,0.407109 1.0125,1.228508 2.25,1.825331 1.2375,0.596824 2.39282,1.115591 2.56739,1.152815 0.17456,0.03722 0.006,-0.94482 -0.37423,-2.18232 z m 5.52788,1.28906 c 0.80907,-0.511673 1.25907,-1.067282 1,-1.234687 -0.25907,-0.167405 -1.52736,-0.898053 -2.81842,-1.623661 -1.29106,-0.725608 -2.51071,-1.155957 -2.71034,-0.95633 -0.19962,0.199627 -0.10332,1.355807 0.21401,2.569288 0.31734,1.213482 1.08699,2.199439 1.71034,2.191017 0.62335,-0.0084 1.79534,-0.433954 2.60441,-0.945627 z" />
  </g>
</svg>
