<?xml version="1.0" encoding="UTF-8" standalone="no"?>
<!-- Created with Inkscape (http://www.inkscape.org/) -->

<svg
   version="1.1"
   id="svg1"
   width="95.434258"
   height="81.481285"
   viewBox="0 0 95.434258 81.481285"
   xmlns="http://www.w3.org/2000/svg"
   xmlns:svg="http://www.w3.org/2000/svg">
  <defs
     id="defs1" />
  <g
     id="layer15"
     style="display:inline"
     transform="translate(-408.28351,-32.456586)">
    <path
       style="display:inline;fill:#000000"
       d="m 429.46528,113.04848 c -1.11909,-0.45362 -2.63184,-1.54425 -3.36167,-2.42363 -0.80513,-0.97013 -1.07242,-2.613 -0.67969,-4.17776 0.43447,-1.73107 1.86839,-3.09372 4.36167,-4.1449 3.24116,-1.36649 5.11592,-1.40974 14.71441,-0.33947 6.05,0.67459 12.9125,1.57586 15.25,2.0028 2.3375,0.42695 4.25,0.67333 4.25,0.54751 0,-0.12582 -2.76528,-1.93558 -6.14506,-4.02171 l -6.14507,-3.792945 -7.60493,1.157421 c -4.18272,0.636581 -10.99231,1.154447 -15.13243,1.150812 -5.1856,-0.0046 -8.21895,-0.490919 -9.75,-1.563312 C 418.00013,96.587109 417,95.081853 417,94.098284 c 0,-0.98357 0.82293,-2.533053 1.82874,-3.443296 1.05126,-0.951373 3.49586,-1.652009 5.75,-1.647982 2.15669,0.0039 7.74626,0.916723 12.42126,2.0286 4.675,1.111877 9.30584,2.269871 10.29076,2.57332 0.9862,0.303843 -0.25846,-1.556772 -2.77032,-4.141292 -3.73573,-3.843776 -5.04173,-4.601137 -7.21715,-4.18528 -1.56017,0.298246 -3.23165,-0.06786 -4.0511,-0.887308 C 432.48491,83.627771 430.56721,83 428.99062,83 c -1.57658,0 -5.87234,-0.697098 -9.54613,-1.549106 -3.67379,-0.852008 -6.90742,-1.321295 -7.18586,-1.04286 -0.27843,0.278435 1.01197,1.178604 2.86756,2.000377 1.8556,0.821772 6.52381,1.84645 10.37381,2.277062 6.96555,0.779076 6.97555,0.784551 2.03156,1.112441 -2.73264,0.181231 -7.00165,-0.18246 -9.4867,-0.808202 -2.48504,-0.625742 -5.08675,-1.609513 -5.78156,-2.186157 C 411.56848,82.226911 411,80.733356 411,79.484544 c 0,-1.248811 0.7118,-2.543711 1.58179,-2.877555 C 413.45177,76.273145 415.40475,76 416.92175,76 c 1.51699,0 6.65434,1.35 11.41633,3 4.76199,1.65 8.8667,3 9.12157,3 0.25487,0 -0.75679,-2.010776 -2.24813,-4.468392 -2.05499,-3.386481 -3.32894,-4.476044 -5.26152,-4.5 -1.4025,-0.01738 -2.9775,-0.409 -3.5,-0.870257 -0.5225,-0.461257 -3.92688,-1.361257 -7.5653,-2 C 415.24629,69.522608 411.66879,69 410.9347,69 c -0.96568,0 -1.03244,0.302255 -0.24147,1.093234 0.60128,0.601279 4.40378,1.467599 8.45,1.925156 l 7.35677,0.831922 -7.73285,-0.193723 c -5.59694,-0.140214 -8.1803,-0.641168 -9.35278,-1.813649 -1.03799,-1.037988 -1.37918,-2.378458 -0.94976,-3.731433 C 408.97018,65.518584 409.9543,65 412.4716,65 c 1.83525,0 6.61936,1.110563 10.63136,2.467917 4.012,1.357355 7.37749,2.369855 7.47888,2.25 0.10139,-0.119854 -2.25026,-5.34342 -5.22589,-11.607925 -2.97563,-6.264504 -5.87204,-13.450675 -6.43647,-15.969269 -0.56442,-2.518594 -0.7811,-5.555955 -0.48149,-6.749691 0.29961,-1.193736 1.28704,-2.455274 2.19428,-2.803416 0.90725,-0.348143 2.64879,0.02175 3.87009,0.821973 1.2213,0.800228 2.5079,2.891687 2.85909,4.647686 0.3512,1.755999 0.65888,7.748975 0.68374,13.317725 0.0383,8.586135 0.39681,10.797272 2.3587,14.548234 l 2.31351,4.423233 1.2244,-5.423233 c 0.67343,-2.982779 1.8996,-7.565018 2.72483,-10.182753 0.82524,-2.617736 2.33024,-5.203622 3.34446,-5.746414 1.01421,-0.542792 2.53449,-0.721937 3.3784,-0.3981 0.84391,0.323837 1.79635,1.414192 2.11653,2.42301 0.32019,1.008818 -0.10062,3.46835 -0.93514,5.465625 -0.83451,1.997276 -2.47845,4.981217 -3.65318,6.63098 -1.17474,1.649763 -2.31289,2.822562 -2.52923,2.606221 -0.21634,-0.216341 0.9496,-2.829749 2.59098,-5.807575 1.64137,-2.977825 2.99247,-6.291728 3.00243,-7.364228 0.0106,-1.142396 -0.33138,-1.556552 -0.82576,-1 -0.46413,0.5225 -2.15163,4.095985 -3.75,7.941078 -1.59836,3.845094 -2.77485,7.388915 -2.6144,7.87516 0.16045,0.486244 -0.4725,1.728533 -1.40654,2.760642 -1.60026,1.768264 -1.58824,2.082067 0.20828,5.437595 1.0486,1.958569 2.60753,4.199247 3.46429,4.979285 1.39078,1.26623 1.80677,0.375189 3.88089,-8.312754 1.27773,-5.352053 2.9343,-10.936615 3.68128,-12.410137 0.74698,-1.473523 2.19969,-2.946226 3.22824,-3.272675 1.02854,-0.326449 2.56414,-0.327211 3.41242,-0.0017 0.84829,0.325517 1.77466,1.480265 2.05862,2.566107 0.28395,1.085842 0.14663,3.26313 -0.30515,4.838419 -0.45179,1.575289 -2.01016,4.89256 -3.46304,7.371714 -1.45288,2.479154 -3.36813,5.108236 -4.25612,5.842406 -0.88798,0.73417 0.2574,-2.078536 2.5453,-6.250456 2.28789,-4.171921 4.15981,-8.559421 4.15981,-9.75 0,-1.19058 -0.3375,-2.153524 -0.75,-2.139877 -0.4125,0.01365 -2.61232,4.513647 -4.8885,10 C 446.08533,74.511166 444.70127,79 445.28581,79 c 0.58455,0 -0.002,1.133908 -1.30441,2.519795 l -2.36722,2.519795 4.88262,4.957161 c 2.68544,2.726439 5.02514,4.814642 5.19933,4.640453 0.17419,-0.17419 0.96122,-5.512209 1.74895,-11.862264 0.78773,-6.350056 2.10519,-13.156151 2.92768,-15.124657 0.99231,-2.374936 2.36309,-3.796866 4.07433,-4.226359 1.56725,-0.393354 3.20819,-0.124982 4.18312,0.684141 1.23732,1.026883 1.48299,2.506148 1.07414,6.467596 -0.29552,2.863277 -1.9433,7.935712 -3.72354,11.462364 -1.7564,3.479392 -4.32832,8.041074 -5.71538,10.137071 -2.06417,3.119169 -2.29587,4.083294 -1.27651,5.311554 0.68499,0.825357 3.60998,2.853507 6.49998,4.507 2.89,1.65349 5.53728,3.00635 5.88283,3.00635 0.34555,0 0.64299,-5.0625 0.66099,-11.25 0.018,-6.1875 0.42966,-14.330196 0.91482,-18.094881 0.63006,-4.889072 1.52772,-7.532103 3.1416,-9.25 C 473.33186,64.082304 475.36967,63 476.61761,63 c 1.24794,0 2.9695,1.000128 3.82569,2.222506 0.85618,1.222379 1.5567,3.744924 1.5567,5.605656 0,1.860732 -0.68171,6.013945 -1.51491,9.229363 -0.83319,3.215417 -2.4195,7.956563 -3.52513,10.535879 -1.10562,2.579317 -2.20291,4.49698 -2.43842,4.261474 -0.2355,-0.235506 0.71061,-3.561697 2.10247,-7.391535 1.39186,-3.829839 2.95756,-9.26577 3.47933,-12.079848 0.61739,-3.329838 0.59903,-6.036114 -0.0526,-7.75 C 479.50007,66.185073 478.68264,65 478.23426,65 c -0.44838,0 -2.04035,6.6375 -3.53771,14.75 -1.49736,8.1125 -2.95126,16.1 -3.23089,17.75 -0.47581,2.80758 -0.44153,2.84637 0.53444,0.604816 0.57358,-1.317351 1.28959,-2.148458 1.59114,-1.846905 0.30156,0.301553 -0.38311,2.373959 -1.52148,4.605349 -1.13837,2.23138 -2.06976,4.28545 -2.06976,4.5646 0,0.27914 3.7125,1.65981 8.25,3.06815 4.5375,1.40834 12.75,3.16983 18.25,3.91442 7.85917,1.06398 8.92959,1.37743 5,1.46413 -2.75,0.0607 -7.925,-0.34553 -11.5,-0.9027 -3.575,-0.55717 -9.89379,-2.17404 -14.04175,-3.59303 -7.29491,-2.49556 -7.7122,-2.52938 -12.75,-1.03332 -2.86454,0.85068 -5.20825,1.33144 -5.20825,1.06837 0,-0.26308 1.0125,-0.89661 2.25,-1.40785 1.43359,-0.59225 -4.09982,-0.71248 -15.25,-0.33136 -9.625,0.329 -17.72429,0.79857 -17.99843,1.04351 -0.27413,0.24494 0.37438,1.08355 1.44113,1.86358 1.21424,0.88788 4.39231,1.4124 8.49843,1.40262 3.60738,-0.009 9.25887,-0.66756 12.55887,-1.46438 3.3,-0.79682 6.4275,-1.46479 6.95,-1.48438 0.6,-0.0225 0.6,0.29625 0,0.86518 -0.5225,0.49544 -4.48563,1.62044 -8.80696,2.5 -4.32133,0.87956 -9.72133,1.57068 -12,1.53581 -2.27867,-0.0349 -5.05866,-0.43452 -6.17776,-0.88813 z M 449.5,105.89211 c 7.55452,-0.1025 8.35756,-0.25699 5,-0.96192 -2.2,-0.46189 -8.5,-1.1422 -14,-1.51181 -9.56959,-0.64307 -10.08608,-0.57407 -12,1.6031 l -2,2.27509 7,-0.64118 c 3.85,-0.35264 11.05,-0.69612 16,-0.76328 z m -9,-8.782333 c 4.97284,-0.711127 4.95383,-0.718983 -3.5,-1.44628 -4.675,-0.402198 -10.6375,-0.983247 -13.25,-1.291221 -2.69823,-0.31808 -4.75,-0.153476 -4.75,0.381072 0,0.517563 1.0125,1.429334 2.25,2.026157 1.2375,0.596824 4.95,1.076168 8.25,1.065209 3.3,-0.01096 8.25,-0.341681 11,-0.734937 z m 0.41667,-3.477828 c -0.22917,-0.202428 -4.32725,-1.132669 -9.10685,-2.067201 -7.29707,-1.426763 -9.06045,-1.487992 -11,-0.381948 -2.14902,1.225502 -1.89213,1.357709 3.69018,1.899092 3.3,0.320041 8.4375,0.657541 11.41667,0.75 2.97916,0.09246 5.22916,0.0025 5,-0.199943 z M 475.4896,65.156262 c -0.29547,-0.295468 -1.23461,0.16018 -2.08699,1.012552 -0.85237,0.852371 -1.95592,3.300585 -2.45233,5.440476 C 470.45387,73.74918 470.07511,79.775 470.10859,85 l 0.0609,9.5 2.92867,-14.403261 c 1.61078,-7.921794 2.68693,-14.645008 2.39147,-14.940477 z m -15.60293,17.272225 c 1.6908,-3.613151 3.55629,-8.359793 4.14554,-10.548092 0.58924,-2.1883 0.76946,-4.929904 0.40048,-6.092454 -0.54514,-1.717591 -0.82552,-1.837372 -1.49609,-0.639137 -0.45387,0.811026 -1.72523,4.596828 -2.82524,8.412894 -1.10001,3.816066 -2.68344,9.092086 -3.51875,11.724488 -0.8353,2.632403 -1.12754,4.54442 -0.64942,4.248926 0.47811,-0.295493 2.25268,-3.493474 3.94348,-7.106625 z M 460.87331,66.75 c 0.6478,-1.653784 0.69762,-2.75 0.12499,-2.75 -0.52371,0 -1.60305,1.0125 -2.39854,2.25 -0.79549,1.2375 -1.93087,4.920147 -2.52306,8.183659 -0.59218,3.263513 -1.04701,6.863513 -1.01072,8 0.0363,1.136488 1.11541,-1.308659 2.39806,-5.433659 1.28265,-4.125 2.81682,-8.7375 3.40927,-10.25 z M 422.5,78.861836 c -4.1238,-1.332302 -6.6254,-1.654797 -8,-1.03132 -1.63644,0.74224 -1.00021,1.091169 3.5,1.919516 3.025,0.556807 6.625,1.020901 8,1.03132 1.42471,0.0108 -0.0807,-0.814817 -3.5,-1.919516 z M 448.40003,65.077592 C 449.83001,61.545267 451,58.438023 451,58.172604 c 0,-0.265418 -0.84835,0.285167 -1.88522,1.223524 -1.03688,0.938357 -2.14013,2.980603 -2.45167,4.538325 -0.31154,1.557721 -0.8765,4.122219 -1.25545,5.698884 -0.37896,1.576664 -0.44569,2.641663 -0.1483,2.366663 0.29739,-0.275 1.71069,-3.390084 3.14067,-6.922408 z M 418,67.5 c -1.925,-0.741314 -4.2875,-1.382079 -5.25,-1.423922 -0.9625,-0.04184 -1.75,0.346758 -1.75,0.863557 0,0.516799 1.6875,1.116152 3.75,1.331897 2.0625,0.215744 4.425,0.433673 5.25,0.484287 0.825,0.05061 -0.075,-0.514505 -2,-1.255819 z m 21.82887,-12.783394 c 1.14851,-2.630867 1.61095,-4.488432 1.02764,-4.127923 -0.58332,0.36051 -1.68966,2.161084 -2.45854,4.001276 C 437.62908,56.430151 437,58.475216 437,59.134548 c 0,0.659332 0.16665,1.011285 0.37032,0.782119 0.20368,-0.229167 1.31003,-2.569194 2.45855,-5.200061 z M 423.04159,44.703512 c -0.98807,-4.835461 -2.07664,-9.071895 -2.41904,-9.414296 C 420.28015,34.946814 420,36.229289 420,38.139162 c 0,1.909872 0.94982,6.285056 2.1107,9.72263 1.16089,3.437574 2.24946,6.111385 2.41904,5.941801 0.16958,-0.169583 -0.50009,-4.264619 -1.48815,-9.100081 z m 3.19616,0.04649 c -0.27236,-3.9875 -0.90311,-8.0375 -1.40166,-9 -0.49855,-0.9625 -1.30435,-1.75 -1.79067,-1.75 -0.50448,0 -0.5208,1.39573 -0.038,3.25 0.46541,1.7875 1.36104,5.8375 1.99029,9 0.62925,3.1625 1.27711,5.75 1.43968,5.75 0.16257,0 0.0727,-3.2625 -0.19963,-7.25 z"
       id="path1527" />
  </g>
</svg>
