<?xml version="1.0" encoding="UTF-8" standalone="no"?>
<!-- Created with Inkscape (http://www.inkscape.org/) -->

<svg
   version="1.1"
   id="svg1"
   width="81.489365"
   height="78"
   viewBox="0 0 81.489365 78"
   xmlns="http://www.w3.org/2000/svg"
   xmlns:svg="http://www.w3.org/2000/svg">
  <defs
     id="defs1" />
  <g
     id="layer11"
     style="display:inline"
     transform="translate(-466.51063,-146)">
    <path
       style="display:inline;fill:#000000"
       d="m 497.56613,222.67201 c -0.99887,-0.73039 -1.81613,-2.53039 -1.81613,-4 0,-2.09361 -0.48056,-2.67201 -2.22001,-2.67201 -1.22101,0 -2.96476,-0.82293 -3.875,-1.82874 -0.91025,-1.00581 -1.65531,-2.69331 -1.6557,-3.75 -5e-4,-1.3664 -0.75591,-1.96499 -2.6157,-2.07268 -1.43825,-0.0833 -3.31293,-0.84935 -4.16596,-1.70238 -0.85303,-0.85303 -1.55096,-2.92239 -1.55096,-4.59858 0,-2.2886 -0.4566,-3.04762 -1.83334,-3.04762 -1.00833,0 -2.77787,-0.94454 -3.9323,-2.09897 -1.51998,-1.51998 -1.97273,-2.95914 -1.64131,-5.21724 0.35455,-2.41572 -0.0738,-3.53626 -1.90103,-4.9736 C 468.7509,185.4455 468,183.82737 468,181.62742 c 0,-1.77508 0.55874,-3.78616 1.24164,-4.46906 0.87798,-0.87798 0.92183,-1.44911 0.1497,-1.95 -0.60056,-0.3896 -1.60936,-1.6914 -2.24178,-2.89289 -0.79511,-1.51058 -0.84592,-2.9839 -0.16471,-4.77562 0.54182,-1.42511 1.6329,-2.83967 2.42461,-3.14348 1.01584,-0.38981 1.28143,-1.52636 0.90244,-3.8618 -0.41157,-2.5362 -0.0275,-3.81894 1.64374,-5.49021 1.39839,-1.39839 3.15491,-2.0786 4.89598,-1.89598 1.75193,0.18377 3.50156,-0.50156 4.93178,-1.93178 1.30845,-1.30845 3.45174,-2.2166 5.2313,-2.2166 2.26238,0 3.45988,0.73205 4.79864,2.93346 1.31938,2.16954 2.1619,2.69436 3.2353,2.01532 0.79825,-0.50499 2.05832,-0.92505 2.80015,-0.93347 0.74183,-0.008 2.65433,1.38228 4.25,3.09045 1.59567,1.70816 2.90121,2.60816 2.90121,2 0,-0.60817 1.35,-1.10576 3,-1.10576 2.53333,0 3,-0.38889 3,-2.5 0,-1.375 0.9,-3.4 2,-4.5 1.1,-1.1 2.70458,-2 3.56574,-2 0.86116,0 2.37952,0.43552 3.37413,0.96782 1.36375,0.72985 2.24628,0.48397 3.58925,-1 0.97947,-1.0823 3.02897,-1.96782 4.55444,-1.96782 1.52547,0 3.48073,0.70714 4.34501,1.57143 0.86429,0.86428 1.57143,2.21428 1.57143,3 0,0.96418 1.13026,1.42857 3.47695,1.42857 2.60591,0 3.8876,0.62673 5.11617,2.50177 0.91483,1.39621 1.39107,3.45067 1.07769,4.64906 -0.39661,1.51663 0.15667,2.71223 1.88383,4.07081 1.39394,1.09648 2.44536,2.96722 2.44536,4.35094 0,1.33508 -0.85179,3.27921 -1.89286,4.32028 -1.69243,1.69243 -1.73214,2.05357 -0.375,3.41071 0.83482,0.83482 1.51786,2.69795 1.51786,4.14028 0,1.44233 -0.80099,3.50751 -1.77999,4.58929 -0.97899,1.08177 -2.39381,1.96686 -3.14405,1.96686 -0.95671,0 -1.17614,0.74875 -0.73478,2.50729 0.39433,1.5711 0.0195,3.43802 -1.004,5 -0.97011,1.48058 -2.58271,2.49271 -3.97156,2.49271 -1.93968,0 -2.25876,0.41599 -1.87178,2.44029 0.32831,1.71745 -0.31837,3.22515 -2.18315,5.08993 -1.45729,1.45729 -3.255,2.41733 -3.9949,2.1334 -0.87254,-0.33483 -1.54774,0.49613 -1.92145,2.3647 -0.3169,1.5845 -1.73496,3.64017 -3.15123,4.56815 -2.01652,1.32128 -3.08396,1.45535 -4.92143,0.61815 -2.06752,-0.94203 -2.28654,-0.84025 -1.84286,0.85638 0.27693,1.059 -0.25496,3.08305 -1.18199,4.49787 -1.3222,2.01793 -2.3789,2.51268 -4.90231,2.29527 -1.82524,-0.15725 -4.27075,0.46108 -5.65316,1.42936 -1.34001,0.93858 -3.15024,1.7065 -4.02274,1.7065 -0.8725,0 -2.40362,-0.59759 -3.40249,-1.32799 z m 7.39752,-2.12821 c 0.66469,-0.8009 0.95444,-1.86731 0.6439,-2.36979 -0.31055,-0.50248 -1.94933,-1.48715 -3.64173,-2.18817 -2.26666,-0.93888 -3.37134,-0.98032 -4.19433,-0.15733 -0.82299,0.82299 -0.81398,1.78282 0.0342,3.64436 0.76572,1.68059 1.95505,2.52713 3.55043,2.52713 1.31944,0 2.94283,-0.65529 3.60753,-1.4562 z M 513.8,217.8 c 0.66,-0.66 1.2,-2.01 1.2,-3 0,-0.99 -0.19928,-1.8 -0.44284,-1.8 -0.24356,0 -2.04289,0.94405 -3.99851,2.0979 -1.95562,1.15384 -3.30479,2.50384 -2.99815,3 0.30665,0.49615 1.56598,0.9021 2.79852,0.9021 1.23254,0 2.78098,-0.54 3.44098,-1.2 z m -2.5073,-4.69655 c 2.86401,-2.1431 7.29288,-6.0806 9.84191,-8.75 2.54904,-2.6694 7.13259,-8.12498 10.18566,-12.12352 3.05308,-3.99854 6.48,-9.75292 7.61539,-12.78751 1.13539,-3.0346 2.06434,-7.20521 2.06434,-9.26804 0,-2.06283 -1.0125,-5.73211 -2.25,-8.15395 -1.2375,-2.42184 -3.5068,-5.31946 -5.04289,-6.43916 -1.64614,-1.19992 -4.31501,-2.02443 -6.5,-2.00808 -2.03891,0.0153 -5.44272,0.86664 -7.56403,1.89195 -2.1213,1.02532 -5.60967,4.08161 -7.75192,6.79177 -2.14226,2.71016 -4.34644,5.67356 -4.89818,6.58533 -0.8662,1.43144 -1.58269,1.01971 -5.24807,-3.0158 -2.3347,-2.57046 -5.81991,-5.60628 -7.74491,-6.74626 -2.19422,-1.29942 -5.24343,-2.0741 -8.17308,-2.07644 -3.88773,-0.003 -5.19023,0.51342 -7.75034,3.07352 -1.69249,1.6925 -3.36061,4.20622 -3.70692,5.58605 -0.34632,1.37983 -0.40656,5.28825 -0.13387,8.68539 0.34065,4.24376 1.51212,8.18993 3.74353,12.61033 1.78625,3.53854 4.94803,8.70784 7.02619,11.48734 2.07816,2.7795 5.51458,6.68565 7.63648,8.68035 2.12191,1.99469 5.83803,5.03219 8.25805,6.75 2.42002,1.7178 4.57673,3.12328 4.7927,3.12328 0.21596,0 2.73594,-1.75345 5.59996,-3.89655 z m -17.4753,-2.80474 c -3.20611,-3.32034 -3.32905,-3.35909 -3.66473,-1.15517 -0.2181,1.43198 0.45117,2.927 1.79887,4.0183 1.18041,0.95584 2.82953,1.47566 3.66473,1.15517 1.20108,-0.4609 0.82503,-1.30092 -1.79887,-4.0183 z m 29.35386,0.0463 c 1.00581,-0.91024 1.82874,-2.71024 1.82874,-4 C 525,205.05526 524.63828,204 524.19617,204 c -0.44211,0 -2.28136,1.52442 -4.08722,3.38759 -2.33329,2.40735 -2.89644,3.54196 -1.94617,3.92106 0.73547,0.2934 1.75179,0.56898 2.25848,0.6124 0.50669,0.0434 1.74419,-0.66579 2.75,-1.57604 z m -34.76919,-4.18656 c 0.28606,-0.46285 -0.9776,-2.29318 -2.80813,-4.0674 -2.79494,-2.70897 -3.42906,-2.9631 -3.9575,-1.58601 -0.3461,0.90192 -0.18604,2.46803 0.35569,3.48025 0.54172,1.01222 1.55261,2.0691 2.24641,2.34861 0.6938,0.27951 1.7974,0.54373 2.45244,0.58715 0.65504,0.0434 1.42503,-0.29975 1.71109,-0.7626 z m 43.06146,-4.11816 c 1.19824,-1.32403 1.56897,-2.77466 1.14293,-4.47215 l -0.63059,-2.51244 -3.40435,3.71479 c -2.32397,2.53589 -3.03419,3.95028 -2.23794,4.45684 0.64153,0.40812 1.65918,0.74894 2.26143,0.75736 0.60226,0.008 1.89309,-0.86656 2.86852,-1.9444 z M 480.96879,196.25 c -0.0172,-0.4125 -1.06255,-2.42711 -2.32308,-4.47692 -1.75759,-2.85812 -2.56622,-3.45257 -3.46879,-2.55 -0.64731,0.64731 -1.17692,1.7915 -1.17692,2.54266 0,0.75116 0.46583,2.23616 1.03518,3.3 0.59362,1.10919 2.08657,1.93426 3.5,1.93426 1.35565,0 2.45078,-0.3375 2.43361,-0.75 z m 57.63324,-3.33468 c 0.76888,-0.63811 1.39108,-1.89261 1.38266,-2.78776 -0.008,-0.89516 -0.40569,-2.24379 -0.88282,-2.99696 -0.65836,-1.03928 -1.49843,-0.4409 -3.48468,2.48213 -1.43946,2.11835 -2.61719,4.17124 -2.61719,4.56199 0,0.39074 0.94591,0.52828 2.10203,0.30563 1.15611,-0.22265 2.73111,-0.92691 3.5,-1.56503 z M 473.9027,182.06956 c -0.67976,-2.26883 -1.72345,-3.96544 -2.31932,-3.77024 -0.59586,0.19521 -1.22157,1.5142 -1.39047,2.93111 -0.21066,1.76724 0.39841,3.07034 1.93967,4.14988 1.23571,0.86553 2.41759,1.40285 2.6264,1.19405 0.2088,-0.20881 -0.17653,-2.23597 -0.85628,-4.5048 z m 70.60098,-0.0736 c 1.49857,-1.65591 1.61608,-2.43767 0.67642,-4.5 C 544.55463,176.12317 543.69218,175 543.26356,175 c -0.42863,0 -1.50751,2.025 -2.39751,4.5 -1.51645,4.21706 -1.50998,4.5 0.10289,4.5 0.9466,0 2.53723,-0.90183 3.53474,-2.00406 z M 472,169.5 c 0,-2.475 -0.21463,-4.5 -0.47695,-4.5 -0.26232,0 -1.1943,1.09482 -2.07107,2.43294 -1.24005,1.89255 -1.34841,2.89207 -0.48787,4.5 0.60844,1.13688 1.54042,2.06706 2.07107,2.06706 0.53065,0 0.96482,-2.025 0.96482,-4.5 z m 73.63828,-2.80506 c -0.34156,-1.36089 -1.35413,-2.75566 -2.25017,-3.0995 -1.29884,-0.49841 -1.5061,-0.16596 -1.02228,1.6397 0.33377,1.24567 0.61301,3.37379 0.62052,4.72915 0.0126,2.27761 0.1371,2.34083 1.6433,0.83463 1.07173,-1.07173 1.41704,-2.47675 1.00863,-4.10398 z m -36.72411,-3.79271 c 1.42072,-1.92164 1.93528,-3.45278 1.35527,-4.03279 -0.51425,-0.51425 -1.72291,-0.63266 -2.6859,-0.26312 -0.963,0.36953 -2.10411,1.62179 -2.53582,2.78278 -0.4317,1.161 -0.5709,2.6734 -0.30933,3.3609 0.26157,0.6875 0.79282,1.25 1.18054,1.25 0.38772,0 1.73558,-1.394 2.99524,-3.09777 z M 478.0982,157 c 0.49599,0 0.9018,-0.45 0.9018,-1 0,-0.55 -1.035,-1 -2.3,-1 -1.265,0 -2.84,0.54 -3.5,1.2 -0.66,0.66 -1.2,2.16 -1.2,3.33333 0,1.17334 0.30884,2.44217 0.6863,2.81964 0.37747,0.37747 1.54666,-0.67253 2.5982,-2.33333 C 476.33605,158.35884 477.60221,157 478.0982,157 Z M 502,160.15499 c 0,-1.01476 -0.86775,-2.63032 -1.92834,-3.59014 -1.27427,-1.1532 -2.66333,-1.51184 -4.09528,-1.05735 -2.08592,0.66204 -2.04186,0.79476 1.17834,3.54949 1.8399,1.57395 3.68278,2.88002 4.09528,2.90237 0.4125,0.0223 0.75,-0.78962 0.75,-1.80437 z M 542,158.5 c 0,-0.825 -0.9,-2.4 -2,-3.5 -1.1,-1.1 -2.675,-2 -3.5,-2 -0.825,0 -1.5,0.19672 -1.5,0.43715 0,0.24043 1.2375,1.76203 2.75,3.38133 1.5125,1.61929 3.0875,2.99758 3.5,3.06285 0.4125,0.0653 0.75,-0.55633 0.75,-1.38133 z m -21.02896,-6.22803 c 0.25907,-0.20939 -0.19093,-0.79936 -1,-1.31103 -0.80907,-0.51167 -2.03354,-0.93721 -2.72104,-0.94563 -0.6875,-0.008 -2.13979,0.87448 -3.22732,1.96201 -1.09841,1.09841 -1.71547,2.65969 -1.38822,3.51248 0.50671,1.32047 1.09788,1.22944 4.22732,-0.65098 2.00102,-1.20237 3.85019,-2.35746 4.10926,-2.56685 z M 491,154.2 c 0,-0.44 -0.54,-1.34 -1.2,-2 -0.66,-0.66 -2.145,-1.2 -3.3,-1.2 -1.155,0 -2.64,0.54 -3.3,1.2 -0.66,0.66 -1.2,1.56 -1.2,2 0,0.44 2.025,0.8 4.5,0.8 2.475,0 4.5,-0.36 4.5,-0.8 z m 42,-2.12857 c 0,-0.51072 -0.70714,-1.63572 -1.57143,-2.5 C 530.56429,148.70714 529.02143,148 528,148 c -1.02143,0 -2.64925,0.7875 -3.61738,1.75 -1.67808,1.66832 -1.52972,1.77767 3.17857,2.3429 2.71634,0.32609 5.05131,0.66359 5.18881,0.75 0.1375,0.0864 0.25,-0.26076 0.25,-0.77147 z"
       id="path1506" />
  </g>
</svg>
